<svg viewBox="0 0 237 237" xmlns="http://www.w3.org/2000/svg" fill-rule="evenodd" clip-rule="evenodd"><circle cx="76.587" cy="85.011" r="26.704" fill="#bdcef7" transform="matrix(4.425 0 0 4.425 -220.639 -257.899)"/><circle cx="76.587" cy="85.011" r="26.704" fill="#f2f2f2" transform="matrix(4.267 0 0 4.267 -208.817 -244.778)"/><path d="M178.743 149.25c2.834 1.721 9.584-2.488 13.943 1.871 1.913 1.913 5.146 4.5 5.196 12.797.021 3.013-14.447 12.676-23.548 7.471-9.097-5.205-20.143-7.076-12.78-16.547 7.367-9.472 14.351-7.313 17.189-5.592z" fill="#c6def7"/><path d="M173.218 147.5h.138l.133.004.133.004.133.008.129.008.129.013.129.013.129.013.125.013.129.017.125.021.121.017.125.021.121.021.117.025.121.021.117.025.117.029.117.025.113.029.113.029.113.029.108.033.113.029.104.033.108.033.104.033.104.038.104.038.1.033.1.038.1.038.096.042.096.038.096.038.092.042.092.042.092.042.088.038.092.042.083.042.088.042.083.046.079.042.083.042.079.042.075.046.079.042.146.083.142.088.138.083.063.038.067.033.067.033.071.029.071.025.071.029.071.025.075.021.075.021.075.017.079.021.079.013.079.017.083.013.079.008.088.008.083.008.088.008.088.004.088.004.092.004h.276l.092-.004.096-.004.096-.004.1-.004.096-.008.1-.008.1-.008.1-.008.208-.025.208-.025.208-.025.217-.033.217-.029.221-.038.225-.033.229-.038.458-.075.471-.075.238-.038.238-.038.242-.038.246-.033.246-.033.246-.029.246-.025.125-.013.125-.013.125-.013.125-.008.125-.008.125-.008.125-.008.125-.008.125-.004.129-.004h.125l.125-.004h.254l.129.004.125.004.125.004.129.008.125.008.129.008.125.013.129.013.125.013.129.017.125.021.125.021.129.021.125.025.125.025.129.029.125.033.125.029.125.038.125.038.125.038.125.042.121.046.125.046.125.05.121.054.125.054.121.054.121.063.121.063.121.063.121.071.117.071.121.071.117.079.117.079.117.083.117.083.113.092.117.092.113.092.113.1.113.1.108.104.188.175.392.371.208.2.104.1.108.104.108.108.108.108.113.113.108.113.113.117.113.121.117.125.113.125.113.129.117.133.113.138.117.142.113.146.113.146.117.154.113.158.108.158.058.083.054.083.058.083.054.083.054.088.054.088.054.092.054.088.054.092.054.092.054.096.05.096.054.096.05.096.054.1.05.1.05.1.05.104.05.104.05.104.05.108.05.108.046.108.05.108.046.113.046.117.046.113.046.117.046.121.042.117.046.121.042.125.042.121.042.129.042.125.042.129.038.129.042.133.038.133.038.133.033.138.038.138.033.142.038.142.033.142.029.146.033.146.029.15.029.15.029.15.029.154.029.154.025.158.025.158.025.163.025.163.021.163.025.167.021.167.017.171.021.171.017.175.017.175.017.179.017.179.013.179.013.183.013.188.008.188.013.188.008.192.004.196.008.196.004.2v.058l-.004.058-.004.063-.004.058-.008.058-.013.063-.008.058-.017.058-.013.058-.017.054-.017.058-.021.058-.021.058-.021.054-.025.058-.021.054-.025.058-.029.054-.029.058-.025.054-.033.058-.029.054-.033.058-.033.058-.071.108-.038.063-.033.05-.079.117-.083.113-.088.117-.092.113-.096.117-.096.117-.104.117-.104.121-.113.117-.113.121-.121.121-.121.121-.125.121-.129.121-.133.121-.133.125-.142.121-.142.125-.146.125-.15.125-.154.121-.154.125-.163.125-.163.125-.163.125-.171.125-.171.125-.175.125-.179.125-.179.125-.183.125-.188.121-.188.125-.192.121-.192.125-.2.121-.196.121-.204.121-.05.029-.154.088-.204.117-.208.117-.213.117-.213.117-.217.113-.217.113-.221.113-.221.108-.225.108-.225.108-.229.108-.229.104-.229.1-.233.104-.233.1-.238.096-.233.096-.242.096-.238.092-.242.092-.246.088-.242.083-.246.083-.246.083-.25.079-.246.075-.25.075-.113.033-.138.038-.254.071-.254.063-.25.067-.254.058-.258.058-.254.054-.254.05-.129.025-.129.025-.129.021-.129.021-.129.025-.129.017-.129.021-.129.021-.129.017-.129.017-.129.017-.063.008-.067.008-.129.013-.129.013-.129.013-.129.013-.129.013-.129.008-.129.008-.133.008-.129.008-.129.004-.129.004-.129.004-.129.004-.129.004h-.391l-.129-.004-.129-.004-.129-.004-.129-.004-.129-.004-.129-.008-.129-.008-.129-.008-.092-.008-.038-.004-.125-.013-.129-.013-.129-.013-.129-.017-.129-.017-.125-.017-.129-.021-.125-.021-.129-.021-.125-.021-.129-.025-.125-.025-.129-.025-.125-.029-.125-.029-.125-.029-.125-.029-.125-.033-.125-.033-.125-.038-.125-.033-.125-.038-.121-.042-.125-.038-.125-.042-.121-.046-.121-.042-.063-.025-.058-.021-.125-.05-.121-.05-.121-.05-.117-.05-.121-.054-.121-.054-.117-.054-.121-.058-.117-.058-.117-.058-.117-.063-.117-.063-.117-.067-.113-.063-.208-.125-.213-.117-.208-.121-.213-.117-.208-.117-.213-.113-.213-.117-.171-.092-.042-.021-.217-.113-.213-.113-.213-.113-.213-.113-.429-.221-.429-.217-.429-.213-.429-.213-.425-.213-.425-.208-.842-.413-.421-.204-.413-.204-.408-.2-.408-.204-.4-.204-.396-.2-.196-.104-.196-.1-.013-.008-.179-.096-.188-.1-.192-.104-.188-.104-.183-.104-.188-.104-.179-.104-.179-.104-.179-.104-.175-.108-.175-.104-.171-.108-.171-.108-.167-.108-.167-.108-.163-.108-.158-.113-.158-.113-.154-.113-.154-.113-.15-.113-.146-.117-.146-.117-.142-.117-.138-.121-.138-.121-.133-.121-.125-.121-.067-.063-.063-.063-.063-.063-.063-.063-.058-.063-.058-.067-.058-.063-.058-.067-.058-.063-.054-.067-.058-.067-.054-.067-.05-.067-.054-.067-.05-.067-.05-.071-.05-.067-.05-.071-.046-.067-.046-.071-.046-.071-.046-.071-.046-.071-.042-.071-.042-.075-.038-.071-.042-.075-.038-.071-.038-.075-.033-.075-.033-.075-.033-.079-.033-.075-.033-.075-.029-.079-.029-.079-.025-.075-.025-.079-.025-.079-.025-.079-.013-.05-.008-.033-.021-.079-.021-.083-.017-.079-.017-.083-.017-.083-.013-.083-.013-.083-.013-.083-.008-.083-.008-.083-.008-.083-.004-.088-.004-.088-.004-.083v-.264l.004-.088.004-.088.004-.088.008-.088.008-.092.008-.088.013-.092.013-.088.017-.092.017-.092.017-.088.017-.092.021-.092.021-.092.025-.096.025-.092.025-.092.029-.092.029-.096.029-.096.033-.092.033-.096.033-.096.038-.096.038-.096.042-.096.038-.096.046-.096.042-.1.046-.096.046-.1.05-.096.05-.1.05-.1.054-.1.054-.1.054-.1.058-.104.058-.1.063-.104.063-.1.063-.104.067-.104.067-.104.067-.104.071-.104.071-.108.075-.104.075-.108.075-.108.079-.108.079-.108.079-.108.083-.108.088-.113.083-.108.088-.113.092-.113.179-.221.179-.217.179-.208.058-.071.121-.138.175-.204.179-.2.179-.196.179-.192.179-.188.175-.183.179-.179.175-.175.179-.171.175-.167.175-.163.175-.163.179-.154.175-.154.171-.15.175-.146.175-.142.175-.138.171-.133.175-.133.171-.125.171-.125.171-.121.171-.117.171-.117.171-.108.171-.108.167-.104.171-.1.167-.1.167-.096.167-.092.167-.088.167-.083.163-.083.167-.079.163-.079.163-.075.163-.071.163-.067.163-.067.158-.063.158-.058.163-.058.158-.054.154-.05.158-.05.158-.046.154-.046.154-.042.154-.038.154-.038.15-.033.15-.033.15-.029.15-.029.15-.025.15-.025.146-.021.146-.017.146-.017.142-.017.146-.013.142-.008.142-.013.142-.004.138-.004.138-.004h.276zm5.267 1.742l-.083-.042-.146-.079-.075-.038-.079-.038-.079-.038-.079-.042-.083-.038-.083-.038-.083-.038-.088-.033-.083-.038-.092-.038-.088-.033-.092-.038-.092-.033-.092-.038-.096-.033-.096-.033-.1-.029-.096-.033-.1-.033-.1-.029-.104-.029-.1-.029-.108-.029-.104-.025-.104-.029-.108-.025-.108-.025-.113-.021-.108-.025-.113-.021-.113-.021-.117-.017-.113-.017-.117-.017-.117-.017-.121-.017-.117-.013-.121-.013-.121-.008-.125-.008-.121-.008-.125-.004-.125-.008h-.125l-.125-.004h-.14200000000000002l-.117.004h-.129l-.129.008-.129.004-.133.008-.133.013-.133.008-.133.017-.133.013-.138.021-.138.017-.138.021-.138.025-.138.025-.142.029-.138.029-.142.029-.142.038-.142.033-.142.038-.146.042-.146.046-.142.042-.146.05-.146.05-.15.054-.146.054-.146.058-.15.058-.15.063-.15.067-.15.067-.15.071-.154.075-.15.075-.154.079-.15.079-.154.088-.154.088-.154.088-.158.096-.154.096-.154.1-.158.1-.154.108-.158.108-.158.113-.158.113-.158.121-.158.121-.158.125-.163.129-.158.129-.163.138-.158.138-.163.142-.163.146-.158.15-.163.154-.163.154-.163.163-.163.163-.163.167-.167.175-.163.175-.163.179-.163.179-.167.188-.163.192-.167.196-.163.2-.167.2-.108.142-.054.067-.167.213-.167.213-.167.221-.079.108-.079.108-.079.108-.079.108-.071.104-.075.108-.071.104-.071.104-.067.1-.067.104-.067.1-.063.1-.063.1-.058.1-.058.1-.058.096-.054.1-.054.096-.05.096-.054.092-.046.096-.05.092-.046.092-.042.092-.046.092-.042.088-.038.092-.038.088-.038.088-.038.088-.033.088-.033.083-.029.083-.033.088-.025.083-.029.079-.025.083-.025.079-.021.083-.025.079-.021.079-.017.075-.017.079-.017.075-.017.075-.013.075-.013.075-.013.075-.013.071-.008.075-.008.071-.004.071-.008.071-.004.071v.067l-.004.071v.201l.004.067v.067l.008.067.004.063.004.063.008.067.008.063.013.063.008.063.013.063.013.058.013.063.017.058.013.063.017.058.038.117.017.063.021.058.021.054.025.058.021.058.025.058.025.058.025.054.029.058.025.054.029.058.029.054.033.054.029.058.033.054.033.054.038.054.033.054.038.054.038.054.038.054.038.054.042.054.042.054.042.054.042.054.046.054.046.05.046.054.046.054.05.05.046.054.05.054.05.05.054.054.05.05.054.05.054.054.054.05.054.05.117.104.121.104.121.1.125.1.129.1.129.1.138.1.138.1.142.1.142.096.15.1.15.096.154.1.154.096.158.096.163.096.167.096.167.096.167.096.171.096.175.092.179.096.179.096.179.092.183.096.188.096.188.092.379.192.192.092.392.192.4.188.404.192.408.192.417.196.421.192.85.396.433.2.433.204.438.204.442.208.438.213.442.213.221.108.225.113.221.108.221.113.046.025.175.088.221.117.221.117.221.117.217.117.221.121.221.121.213.121.104.058.096.054.1.05.1.05.1.05.1.05.104.046.1.046.104.046.1.046.104.042.1.042.104.038.104.042.104.038.104.038.108.038.104.033.104.033.108.033.104.033.108.029.108.029.104.029.108.029.108.025.108.025.113.025.108.021.108.025.113.021.108.017.113.021.108.017.113.017.113.017.108.017.113.013.113.013.113.013.117.013.225.021.113.008.117.008.113.004.113.008.117.004.117.004.113.004h.5810000000000001l.117-.004h.117l.117-.004.117-.008.117-.004.117-.008.117-.004.117-.008.117-.013.121-.008.117-.013.117-.008.117-.013.063-.008.058-.008.117-.013.117-.013.117-.017.121-.017.117-.017.121-.017.117-.021.117-.017.121-.021.117-.021.117-.021.238-.046.238-.046.233-.05.238-.054.238-.054.233-.058.233-.063.129-.038.108-.025.233-.067.233-.067.229-.071.233-.071.233-.075.229-.075.229-.079.229-.083.225-.079.225-.088.225-.083.225-.088.221-.092.221-.092.221-.092.217-.096.217-.096.217-.1.213-.096.213-.104.208-.1.208-.104.204-.104.204-.104.204-.104.2-.108.196-.108.146-.079.05-.029.192-.108.192-.108.188-.108.188-.113.183-.113.179-.108.179-.113.175-.113.175-.113.171-.113.167-.113.163-.113.163-.113.154-.113.154-.113.154-.113.146-.113.146-.113.142-.108.138-.113.133-.108.129-.108.129-.108.121-.108.121-.108.113-.104.113-.104.108-.104.1-.104.1-.1.096-.1.088-.096.088-.096.079-.096.079-.092.071-.088.067-.092.063-.083.029-.038.029-.046.054-.079.025-.038.021-.038.025-.038.021-.038.017-.033.021-.033.017-.033.017-.033.013-.033.017-.029.013-.029.008-.029.013-.025.008-.025.008-.025.004-.021.008-.021.004-.021.004-.017.004-.029-.004.025.004-.029.004-.025-.004.025.004-.021v-.7590000000000001l-.004-.179-.004-.179-.008-.175-.004-.175-.008-.175-.008-.171-.008-.167-.013-.171-.013-.163-.013-.163-.013-.163-.013-.158-.017-.158-.017-.158-.017-.154-.021-.15-.017-.15-.021-.15-.021-.146-.021-.146-.025-.142-.021-.142-.025-.142-.025-.138-.029-.138-.025-.133-.029-.133-.025-.133-.029-.129-.029-.129-.033-.125-.004-.013-.025-.113-.033-.125-.029-.121-.033-.121-.033-.121-.033-.117-.038-.117-.033-.113-.038-.113-.033-.113-.038-.113-.038-.108-.038-.108-.042-.104-.038-.104-.042-.104-.038-.104-.042-.1-.042-.1-.042-.1-.042-.096-.042-.096-.042-.096-.046-.092-.042-.092-.046-.092-.046-.092-.046-.088-.042-.088-.046-.088-.046-.083-.046-.088-.05-.083-.046-.079-.046-.083-.05-.079-.046-.079-.05-.079-.046-.075-.1-.154-.096-.15-.1-.142-.1-.142-.1-.138-.1-.133-.1-.133-.104-.129-.1-.125-.1-.121-.104-.121-.1-.117-.104-.117-.1-.113-.1-.108-.1-.108-.1-.108-.1-.104-.1-.104-.196-.2-.192-.196-.188-.192-.179-.183-.1-.1-.092-.092-.096-.092-.1-.088-.096-.088-.1-.079-.1-.079-.096-.079-.104-.075-.1-.071-.1-.071-.104-.067-.104-.063-.104-.063-.104-.058-.104-.058-.108-.054-.108-.054-.104-.05-.108-.046-.113-.046-.108-.046-.108-.042-.113-.042-.108-.038-.113-.038-.113-.033-.113-.029-.117-.033-.113-.029-.117-.025-.113-.025-.117-.025-.042-.008-.075-.013-.117-.021-.117-.021-.117-.017-.117-.017-.117-.013-.121-.013-.117-.013-.121-.008-.117-.008-.121-.008-.121-.008-.121-.004-.121-.004-.117-.004h-.363l-.121.004h-.121l-.125.004-.121.004-.121.004-.121.008-.121.004-.242.017-.242.021-.242.021-.242.021-.238.025-.238.025-.238.025-.471.058-.467.054-.229.025-.225.029-.225.021-.221.025-.221.021-.217.017-.213.017-.213.013-.104.008-.104.004-.1.004h-.104l-.1.004h-.1l-.1-.004h-.096l-.1-.004-.096-.004-.096-.004-.092-.008-.096-.004-.092-.013-.092-.008-.088-.013-.092-.017-.088-.013-.088-.021-.083-.017-.083-.021-.083-.021-.083-.025-.083-.029-.079-.025-.075-.029-.079-.033-.075-.033-.075-.038-.004-.004-.067-.033-.071-.042-.071-.042-.138-.079-.058-.033z" fill="#262626"/><path d="M40.982 158.509s-3.275 7.417.458 12.601c3.734 5.188 7.746 7.263 19.152 7.467 11.409.208 21.506-1.867 23.373-10.784 1.867-8.922-22.518-16.618-22.518-16.618s-13.155.642-16.889 2.65c-2.384 1.283-3.575 4.684-3.575 4.684z" fill="#c6def7"/><path d="M41.061 158.642l-.042.1-.017.054-.033.088-.063.179-.038.1-.038.108-.038.121-.042.125-.042.133-.042.142-.046.15-.042.158-.046.163-.046.167-.046.175-.042.183-.046.188-.046.196-.042.196-.042.204-.038.213-.038.213-.038.217-.033.225-.017.113-.017.113-.017.117-.013.117-.013.117-.017.117-.008.117-.013.121-.013.117-.008.121-.008.125-.008.121-.008.121-.004.125-.008.125-.004.125v.125l-.004.125v.379l.004.125.004.129.004.129.004.129.008.125.008.129.013.129.013.129.013.129.013.133.017.129.017.129.017.129.021.129.021.129.025.129.025.133.025.129.029.129.029.129.033.129.033.129.033.125.038.129.038.129.042.129.042.125.046.129.046.125.046.125.05.129.054.125.054.125.054.121.058.125.063.125.063.121.063.121.067.121.067.121.071.121.075.121.075.117.079.117.079.117.083.117.083.117.088.117.088.117.092.117.088.113.088.117.092.108.088.113.088.108.092.108.088.108.092.108.092.104.088.104.092.1.092.104.092.1.092.1.092.096.092.1.092.096.096.092.092.096.096.092.092.092.096.092.096.088.096.088.096.088.1.088.096.083.1.083.1.083.1.083.1.079.1.083.1.075.104.079.104.079.104.075.104.075.104.071.108.075.108.071.108.071.108.071.113.067.108.067.113.067.117.067.113.067.117.063.117.063.117.063.117.063.121.058.121.063.125.058.121.054.125.058.125.054.129.058.129.054.129.05.133.054.129.05.138.05.133.05.138.05.138.046.142.046.142.046.142.046.146.046.146.042.15.046.15.042.15.038.154.042.154.038.158.042.154.038.163.033.163.038.163.033.167.038.167.033.167.029.175.033.171.029.175.033.179.029.175.029.183.025.183.029.183.025.188.025.188.025.192.025.196.025.196.021.196.021.2.021.204.021.204.021.204.017.208.021.213.017.213.017.217.013.221.017.217.013.225.017.225.013.229.008.229.013.233.008.233.013.238.008.242.008.242.004.246.008.25.004.25.008.254.004h.254l.258.004h.25l.279.004h.263l.267.004.263-.004h.526l.263-.004.263-.004.258-.004.263-.004.258-.008.258-.008.258-.008.254-.008.258-.013.254-.013.254-.013.254-.013.25-.013.254-.017.25-.017.25-.017.246-.021.25-.021.246-.021.246-.021.246-.021.242-.025.242-.025.242-.029.242-.025.238-.029.238-.029.238-.033.233-.029.233-.033.233-.033.233-.038.229-.038.229-.038.225-.038.229-.042.221-.042.225-.042.221-.046.221-.046.221-.046.217-.05.213-.05.217-.05.213-.054.208-.054.213-.054.204-.058.208-.058.204-.058.2-.063.204-.063.196-.063.2-.067.192-.067.196-.067.192-.071.192-.071.188-.075.092-.038.092-.038.188-.075.179-.075.183-.079.179-.079.175-.083.175-.083.171-.083.171-.083.171-.092.167-.088.163-.092.163-.092.163-.092.158-.096.154-.1.154-.096.15-.104.15-.1.067-.046.079-.058.146-.104.146-.108.142-.108.138-.108.138-.113.133-.113.067-.058.063-.058.067-.058.067-.058.063-.058.063-.058.063-.063.063-.058.063-.063.063-.063.058-.058.063-.063.058-.063.058-.067.058-.063.058-.063.058-.067.054-.063.058-.067.054-.067.054-.067.054-.067.054-.067.054-.067.05-.071.042-.054.013-.013.05-.071.05-.067.05-.071.05-.071.05-.071.05-.071.046-.075.05-.071.046-.075.046-.071.046-.075.046-.075.046-.075.042-.075.046-.075.042-.079.042-.075.042-.079.042-.079.042-.079.038-.079.038-.079.042-.083.038-.079.038-.083.033-.083.038-.079.038-.083.033-.088.033-.083.033-.083.033-.088.033-.088.029-.088.033-.088.029-.088.029-.088.029-.092.029-.088.004-.017.025-.075.025-.092.029-.092.025-.092.025-.096.025-.092.025-.096.021-.096.025-.096.021-.096.021-.096.017-.088.017-.083.013-.088.013-.083.013-.083.004-.088.008-.083.004-.083v-.088l.004-.083-.004-.083v-.088l-.008-.083-.004-.083-.008-.088-.013-.083-.013-.083-.013-.088-.017-.083-.017-.088-.021-.083-.021-.088-.021-.088-.025-.083-.025-.088-.029-.088-.029-.088-.033-.088-.033-.083-.008-.021-.025-.067-.038-.088-.038-.092-.042-.088-.042-.088-.042-.088-.046-.088-.046-.092-.05-.088-.05-.088-.054-.092-.054-.088-.054-.088-.058-.092-.058-.088-.058-.092-.063-.088-.063-.092-.067-.088-.067-.092-.071-.088-.067-.092-.071-.088-.075-.092-.075-.088-.075-.092-.079-.088-.079-.092-.079-.088-.083-.092-.083-.088-.083-.092-.083-.088-.088-.092-.092-.088-.088-.088-.092-.092-.092-.088-.096-.088-.096-.088-.096-.088-.096-.092-.1-.088-.1-.088-.1-.088-.104-.088-.1-.088-.104-.088-.108-.088-.104-.083-.108-.088-.108-.088-.108-.083-.113-.088-.113-.088-.113-.083-.113-.083-.229-.171-.233-.171-.233-.167-.242-.167-.242-.167-.246-.163-.092-.063-.154-.1-.25-.167-.254-.158-.254-.163-.254-.158-.258-.158-.263-.158-.263-.154-.263-.154-.263-.15-.267-.154-.267-.146-.271-.15-.267-.146-.271-.146-.271-.142-.271-.146-.271-.138-.267-.142-.271-.133-.271-.138-.271-.133-.267-.133-.271-.129-.267-.129-.267-.125-.267-.125-.263-.125-.263-.121-.258-.117-.263-.121-.25-.113h-.004l-.258-.117-.25-.113-.25-.108-.25-.108-.246-.104-.242-.104-.238-.104-.471-.196-.458-.192-.442-.179-.425-.171-.413-.163-.392-.154-.371-.142-.35-.133-.333-.125-.304-.113-.283-.104-.258-.096-.233-.083-.204-.071-.325-.113-.183-.067-.042.004-.425.017-.3.013-.363.017-.254.013-.158.008-.458.025-.504.029-.546.029-.579.038-.613.042-.317.021-.321.025-.329.025-.333.025-.338.029-.346.029-.346.029-.35.033-.354.033-.354.033-.354.038-.358.038-.358.038-.358.042-.358.042-.358.042-.354.046-.354.046-.35.05-.35.05-.346.054-.338.05-.338.058-.329.058-.329.058-.158.029-.158.029-.158.033-.154.029-.154.033-.15.033-.15.033-.15.033-.146.033-.142.033-.142.033-.138.038-.138.033-.133.038-.133.038-.129.038-.125.038-.125.038-.121.038-.121.042-.113.038-.113.042-.113.038-.104.042-.104.042-.1.042-.088.038-.008.004-.092.042-.092.042-.083.046-.054.025-.054.029-.05.029-.054.029-.05.033-.054.029-.05.033-.05.033-.054.033-.046.033-.1.071-.1.075-.096.075-.096.075-.092.079-.092.083-.092.083-.088.083-.088.088-.088.088-.083.088-.083.092-.083.092-.079.092-.075.092-.079.096-.071.092-.075.096-.071.096-.071.096-.067.092-.067.096-.063.096-.067.096-.058.092-.058.096-.058.092-.058.092-.054.092-.05.092-.054.088-.046.088-.05.083-.088.167-.083.158-.075.154-.067.138-.063.133-.054.117-.046.104-.033.079-.008.017-.033.075-.042.108-.017.042-.033.088zm-.138-.325l.029-.083.008-.013.029-.083.046-.108.05-.125.058-.133.063-.15.071-.154.079-.167.083-.171.046-.092.046-.092.05-.092.05-.096.054-.096.054-.096.054-.096.058-.1.058-.1.063-.1.063-.1.063-.1.067-.1.071-.104.067-.1.075-.1.071-.1.079-.104.075-.1.079-.096.083-.1.083-.1.083-.096.088-.096.088-.096.092-.092.092-.092.096-.092.096-.088.1-.088.1-.083.104-.083.104-.079.054-.042.054-.038.054-.038.054-.038.054-.038.058-.038.054-.033.058-.033.054-.038.058-.033.096-.05.096-.05.096-.05h.008l.096-.046.104-.05.108-.046.113-.05.113-.046.117-.046.117-.046.125-.042.125-.046.125-.046.129-.042.133-.042.133-.046.138-.042.142-.042.142-.042.142-.038.146-.042.15-.038.15-.042.15-.038.154-.038.154-.042.158-.038.158-.033.158-.038.163-.038.329-.071.333-.071.338-.067.346-.067.346-.067.35-.063.354-.058.354-.063.358-.058.358-.054.358-.054.363-.054.358-.054.358-.05.358-.046.358-.05.354-.046.35-.042.346-.042.346-.042.342-.042.333-.038.329-.038.325-.033.317-.033.613-.063.583-.058.546-.05.508-.046.463-.042.158-.013.258-.021.358-.025.308-.025.425-.029.15-.013.063.004.063.004.063.017.071.021.208.067.333.104.208.067.242.079.263.088.292.096.317.108.338.113.358.125.383.133.4.146.417.15.438.163.454.167.467.179.483.183.246.096.25.1.25.1.254.1.258.104.263.108.267.108.258.108.267.113.267.117.271.117.271.117.275.121.275.121.275.125.275.125.279.125.279.129.279.133.279.133.279.133.279.138.279.138.279.138.283.142.279.146.279.146.275.146.279.146.275.15.275.154.275.15.275.154.271.158.271.158.267.158.267.163.263.163.167.104.096.058.258.167.258.171.254.171.25.171.25.171.246.175.121.088.121.088.121.092.117.088.121.088.117.092.117.092.117.088.113.092.113.092.113.092.113.092.113.092.108.096.108.092.108.092.108.096.104.096.104.092.104.096.1.096.104.096.1.096.096.1.1.096.096.096.092.1.096.1.092.096.092.1.088.1.092.1.088.104.083.1.083.1.083.104.083.1.079.104.079.104.075.104.075.104.075.104.075.108.067.104.071.108.067.104.067.108.063.108.063.108.063.108.058.113.058.108.054.113.054.108.05.113.05.113.046.113.046.117.042.113.042.117.042.113.038.117.033.117.033.117.029.117.029.117.025.121.021.117.021.121.021.121.017.117.013.121.013.121.008.121.004.125.004.121v.246l-.004.121-.008.121-.013.125-.013.125-.013.121-.021.125-.021.121-.021.121-.025.117-.025.108-.025.113-.025.108-.025.108-.029.108-.025.108-.029.108-.029.104-.033.108-.025.088-.004.017-.033.104-.033.104-.033.104-.038.104-.033.1-.038.1-.038.104-.038.1-.038.1-.042.1-.038.096-.042.1-.042.096-.042.1-.046.096-.042.096-.046.096-.046.092-.046.096-.046.092-.05.092-.05.096-.046.092-.05.088-.054.092-.05.092-.054.088-.05.088-.054.088-.054.088-.054.088-.058.088-.054.083-.058.088-.058.083-.058.083-.058.083-.063.083-.058.079-.013.017-.05.067-.063.079-.063.079-.063.083-.067.075-.063.079-.067.079-.067.075-.067.079-.067.075-.071.075-.067.075-.071.071-.071.075-.071.071-.071.075-.071.071-.071.071-.075.071-.071.071-.075.067-.075.071-.075.067-.079.067-.075.067-.079.071-.154.129-.158.129-.158.125-.163.125-.167.121-.167.121-.092.063-.075.054-.175.113-.171.113-.175.113-.179.108-.179.108-.179.104-.183.1-.188.1-.183.1-.192.096-.188.092-.196.092-.192.092-.196.088-.196.088-.2.083-.2.083-.204.079-.104.038-.1.042-.204.075-.208.075-.208.071-.213.071-.213.071-.213.067-.217.067-.217.063-.217.063-.221.058-.221.058-.221.058-.225.054-.221.054-.229.054-.225.05-.229.05-.233.046-.229.046-.233.046-.233.046-.233.042-.238.038-.238.038-.238.038-.242.038-.242.033-.242.033-.242.033-.246.029-.242.029-.246.029-.25.025-.246.025-.25.025-.25.021-.25.021-.254.021-.254.017-.25.017-.258.017-.254.017-.254.013-.258.013-.258.008-.258.013-.258.008-.263.008-.258.008-.263.004-.263.004-.263.004-.263.004h-1.064l-.267-.004h-.267l-.267-.004-.267-.008-.271-.004-.267-.008-.271-.004-.283-.013-.25-.008-.263-.008-.258-.013-.258-.013-.254-.013-.254-.013-.25-.013-.246-.013-.246-.017-.242-.017-.238-.017-.238-.017-.238-.017-.233-.021-.229-.017-.225-.021-.229-.021-.221-.021-.221-.025-.221-.021-.217-.025-.213-.025-.213-.025-.208-.025-.208-.025-.204-.029-.204-.029-.204-.029-.196-.029-.2-.029-.196-.033-.192-.033-.192-.029-.188-.038-.188-.033-.15-.029-.038-.004-.183-.038-.179-.038-.179-.038-.179-.042-.175-.038-.175-.042-.171-.042-.171-.046-.167-.042-.167-.046-.167-.042-.163-.05-.163-.046-.163-.046-.158-.05-.154-.05-.154-.05-.154-.05-.154-.054-.15-.054-.15-.054-.146-.054-.146-.054-.146-.058-.142-.058-.142-.058-.138-.058-.142-.063-.138-.058-.133-.063-.133-.067-.133-.063-.133-.067-.129-.067-.129-.067-.129-.067-.125-.071-.129-.071-.121-.071-.125-.071-.121-.075-.121-.071-.121-.075-.117-.079-.117-.075-.117-.079-.117-.079-.113-.079-.113-.079-.113-.083-.113-.083-.108-.083-.108-.083-.108-.088-.108-.088-.104-.088-.104-.088-.104-.092-.104-.092-.104-.092-.1-.092-.1-.096-.1-.092-.1-.096-.1-.1-.096-.096-.1-.1-.096-.1-.096-.1-.096-.104-.092-.1-.096-.104-.092-.108-.092-.104-.096-.108-.092-.108-.092-.108-.088-.108-.092-.113-.092-.113-.088-.113-.088-.117-.092-.113-.088-.117-.088-.121-.088-.117-.088-.121-.088-.121-.088-.121-.088-.125-.088-.125-.088-.125-.083-.129-.083-.129-.079-.133-.079-.129-.071-.133-.075-.133-.071-.133-.067-.133-.046-.096-.017-.038-.063-.133-.058-.138-.058-.133-.054-.138-.054-.138-.05-.133-.05-.138-.046-.138-.042-.138-.042-.138-.042-.138-.038-.138-.038-.138-.033-.138-.029-.138-.033-.142-.025-.138-.029-.138-.021-.138-.025-.138-.021-.138-.017-.138-.021-.138-.013-.138-.017-.133-.013-.138-.013-.138-.008-.133-.008-.138-.004-.133-.008-.138-.004-.133v-.133l-.004-.133v-.133l.004-.133v-.133l.004-.129.004-.133.008-.129.008-.129.008-.129.008-.129.008-.125.013-.129.013-.125.013-.125.013-.125.017-.125.017-.121.017-.121.017-.121.017-.121.021-.117.017-.121.021-.117.021-.117.021-.113.046-.225.046-.221.046-.217.05-.213.05-.208.05-.2.054-.196.05-.188.054-.183.054-.175.05-.171.054-.167.05-.154.05-.15.05-.142.046-.133.046-.129.046-.117.042-.113.042-.1.071-.179.038-.088.021-.054.046-.104.033-.079.013-.038.042-.113z" fill="#262626"/><path d="M41.07 70.748c-4.009-1.796-19.41-1.496-21.531 5.642-2.125 7.134 4.742 13.339 7.93 14.768 3.188 1.425 18.056.563 19.814-7.138 1.758-7.696-4.129-12.113-6.213-13.272" fill="#d6efff"/><path d="M33.89 69.51h.213l.208.004.208.004.208.004.204.008.204.008.204.008.2.008.2.013.196.013.196.017.196.017.192.013.188.021.188.017.188.021.183.021.179.021.179.025.175.025.175.025.171.025.167.029.167.025.163.033.163.029.154.029.154.033.15.033.15.033.146.033.142.038.138.038.133.038.133.038.125.038.125.042.121.042.117.042.113.042.113.042.104.046.1.042.096.046.004.008.008-.004.104.054.108.063.113.063.117.071.125.071.129.079.133.083.133.088.142.092.142.096.146.104.15.104.15.113.154.117.158.121.158.125.158.133.158.133.083.071.079.071.083.071.079.075.083.075.083.075.079.075.083.079.083.079.079.083.083.079.079.083.083.088.079.083.083.088.079.088.083.092.079.092.079.092.079.092.079.096.079.096.079.096.075.1.079.1.075.1.079.104.075.1.075.108.071.104.075.108.071.108.075.108.071.113.067.113.071.113.067.117.071.117.063.117.067.121.067.121.063.121.063.125.058.125.058.125.058.125.058.129.054.129.054.133.054.129.054.138.05.133.046.138.05.138.042.138.046.142.042.142.042.142.038.146.038.146.038.146.033.15.029.15.029.15.029.15.025.154.025.158.021.154.021.158.021.158.013.163.017.158.008.167.008.163.008.167.004.167.004.167v.171l-.004.171-.004.171-.008.175-.008.175-.013.175-.017.179-.017.175-.021.183-.025.179-.025.183-.021.125-.008.058-.029.183-.038.188-.038.188-.021.1-.021.096-.025.096-.025.096-.025.096-.029.092-.025.096-.033.092-.029.096-.033.092-.033.092-.033.088-.038.092-.038.092-.038.088-.042.088-.038.088-.046.088-.042.088-.042.083-.046.088-.046.083-.05.083-.046.083-.05.083-.054.083-.05.079-.054.079-.05.083-.058.079-.054.079-.058.075-.054.079-.063.075-.058.079-.058.075-.063.075-.063.075-.063.071-.067.075-.063.071-.067.071-.067.071-.067.071-.071.071-.067.071-.071.067-.071.067-.071.071-.075.067-.071.063-.075.067-.075.067-.075.063-.075.067-.079.063-.075.063-.079.063-.079.058-.079.063-.079.058-.083.063-.079.058-.083.058-.083.058-.021.013-.063.042-.083.058-.088.058-.171.108-.171.108-.175.104-.179.104-.179.1-.183.1-.183.096-.188.096-.188.092-.188.092-.192.088-.192.088-.192.088-.196.079-.196.083-.2.079-.2.075-.2.075-.2.075-.2.071-.204.067-.204.067-.204.067-.204.063-.208.063-.204.058-.208.058-.208.058-.208.054-.208.054-.208.05-.125.029-.083.021-.208.046-.208.046-.208.042-.213.042-.208.042-.208.038-.208.038-.204.033-.208.033-.208.033-.204.029-.204.029-.208.029-.204.025-.2.025-.204.021-.2.025-.2.017-.2.021-.196.017-.196.017-.196.013-.196.013-.192.013-.192.008-.188.008-.188.008-.188.004-.183.004-.183.004h-.179l-.179.004-.075-.004h-.275l-.171-.008-.171-.004-.167-.004-.167-.008-.163-.013-.163-.008-.158-.013-.154-.013-.154-.017-.15-.013-.146-.017-.146-.021-.142-.017-.142-.021-.133-.021-.133-.025-.133-.025-.129-.025-.092-.021-.033-.004-.121-.029-.121-.029-.117-.033-.113-.033-.113-.033-.108-.038-.104-.038-.104-.042-.096-.042-.088-.042-.088-.038-.088-.042-.088-.046-.088-.046-.092-.046-.092-.05-.092-.05-.092-.05-.092-.054-.096-.054-.096-.058-.092-.058-.1-.058-.096-.063-.096-.063-.1-.063-.1-.067-.096-.071-.1-.067-.1-.071-.1-.075-.104-.075-.1-.075-.104-.075-.1-.079-.104-.083-.1-.079-.104-.083-.104-.083-.104-.088-.104-.088-.104-.088-.104-.092-.104-.092-.104-.092-.104-.096-.104-.096-.054-.054-.05-.046-.104-.096-.104-.1-.104-.104-.104-.104-.1-.104-.104-.104-.104-.108-.1-.108-.104-.108-.1-.113-.1-.113-.1-.113-.1-.117-.1-.113-.1-.121-.096-.117-.1-.121-.096-.121-.017-.017-.079-.104-.096-.125-.092-.125-.096-.125-.092-.129-.092-.129-.092-.129-.088-.129-.088-.133-.088-.133-.088-.133-.083-.138-.083-.138-.083-.138-.083-.138-.079-.142-.079-.138-.079-.142-.075-.146-.075-.142-.071-.146-.071-.146-.071-.15-.071-.146-.067-.15-.063-.15-.063-.15-.063-.154-.058-.15-.058-.154-.058-.154-.054-.158-.05-.154-.05-.158-.05-.158-.046-.163-.008-.029-.033-.129-.042-.163-.038-.163-.038-.163-.033-.163-.029-.163-.029-.167-.029-.167-.021-.167-.025-.167-.017-.167-.017-.171-.013-.171-.013-.167-.008-.171-.004-.171-.004-.175v-.171l.004-.175.004-.171.008-.175.013-.175.017-.175.017-.175.021-.175.025-.175.029-.175.029-.179.033-.175.038-.179.042-.175.021-.092.025-.088.021-.088.025-.092.025-.088.025-.092.029-.088.021-.071.004-.021.033-.092.029-.092.033-.092.033-.092.038-.092.038-.088.038-.088.038-.088.042-.088.042-.088.046-.088.042-.083.046-.083.05-.083.046-.083.05-.083.05-.079.05-.083.054-.079.054-.075.054-.079.054-.079.058-.075.058-.075.058-.075.058-.075.063-.075.063-.071.063-.071.063-.071.063-.071.067-.071.067-.067.067-.071.071-.067.067-.067.071-.067.071-.063.071-.067.075-.063.071-.063.075-.063.075-.063.075-.063.079-.058.075-.058.079-.058.079-.058.079-.058.079-.058.083-.054.079-.058.083-.054.083-.054.083-.054.083-.05.088-.054.083-.05.088-.05.088-.054.088-.046.088-.05.017-.008.071-.042.092-.046.092-.05.092-.046.179-.088.188-.092.188-.083.188-.088.192-.079.196-.079.196-.079.196-.075.2-.071.2-.071.2-.071.204-.067.208-.063.204-.063.208-.058.208-.058.213-.058.208-.054.213-.054.217-.05.213-.046.217-.05.217-.042.217-.046.217-.042.217-.038.221-.038.221-.038.217-.033.221-.033.221-.029.221-.029.221-.029.221-.025.221-.025.221-.021.221-.025.221-.017.221-.017.217-.017.221-.017.221-.013.217-.013.217-.008.221-.013.217-.004.146-.004.067-.004.217-.004h.213l.213-.004.213.004zm1.438.604h-.2l-.2.004-.2.004-.204.008-.204.004-.208.008-.204.013-.208.008-.208.013-.208.017-.208.017-.071.004-.142.013-.213.017-.213.017-.213.021-.213.025-.213.021-.213.025-.213.029-.217.025-.213.029-.213.033-.213.033-.217.033-.213.033-.213.038-.213.042-.213.038-.213.042-.208.046-.213.046-.208.046-.208.05-.208.05-.204.05-.208.054-.204.054-.204.058-.2.058-.2.058-.2.063-.196.063-.196.067-.196.067-.192.067-.192.071-.188.075-.188.071-.183.075-.183.079-.183.079-.175.079-.175.083-.175.083-.171.088-.167.088-.167.088-.163.092-.083.046-.079.046-.079.05-.063.038-.013.008-.079.046-.079.05-.075.05-.075.046-.075.05-.075.05-.071.05-.071.05-.075.05-.071.054-.067.05-.071.054-.067.05-.067.054-.067.054-.067.054-.067.054-.063.054-.063.054-.063.054-.063.058-.058.054-.063.058-.058.058-.054.054-.058.058-.054.058-.058.058-.054.063-.05.058-.054.058-.05.063-.05.058-.05.063-.046.063-.05.063-.046.063-.046.063-.042.063-.046.063-.042.063-.042.067-.038.063-.042.067-.038.067-.038.067-.038.067-.033.067-.033.067-.033.067-.033.067-.029.071-.033.067-.029.071-.025.071-.029.071-.025.071-.025.071-.025.071-.021.071-.021.075-.021.075-.004.017-.017.058-.021.079-.021.075-.021.079-.017.079-.017.075-.017.079-.017.075-.029.154-.029.154-.025.15-.021.154-.017.15-.017.154-.013.15-.013.15-.008.15-.004.146v.44599999999999995l.004.146.008.146.008.146.013.146.013.146.017.142.021.146.021.142.025.142.025.142.025.142.029.142.033.142.033.138.038.142.038.138.038.138.042.138.042.138.046.138.046.133.05.138.05.133.05.133.054.133.054.133.058.133.058.129.063.133.058.129.067.129.063.129.067.125.067.129.071.125.071.125.071.125.071.125.075.121.075.125.079.121.075.121.079.117.079.121.083.117.079.117.083.117.088.113.083.117.088.113.083.113.088.108.088.113.092.108.088.108.092.108.088.104.092.108.092.104.092.1.096.104.092.1.092.1.096.1.092.096.096.096.096.096.096.092.092.096.096.092.096.088.096.088.096.092.096.083.096.088.092.083.096.083.096.079.096.083.092.079.096.075.092.075.096.075.092.075.092.071.096.071.092.067.088.071.092.063.092.067.088.063.088.063.175.117.088.058.083.054.083.054.083.054.083.05.079.05.083.046.075.046.079.042.075.046.075.038.075.042.071.038.071.033.067.033.067.033.063.029.058.021.058.025.063.025.071.025.075.025.079.021.088.025.092.025.092.021.1.025.104.021.108.021.108.021.117.021.121.021.121.017.125.021.133.017.129.013.138.017.142.013.142.017.146.008.146.013.154.008.15.013.158.004.158.008.163.004.092.004h.071l.167.004.167.004.171.004h.346l.175-.004.179-.004.179-.004.183-.004.183-.008.183-.008.183-.008.188-.013.192-.013.188-.013.192-.013.192-.017.192-.021.192-.017.196-.021.196-.025.196-.021.196-.025.196-.029.2-.025.196-.029.2-.033.196-.033.2-.033.196-.033.2-.038.2-.038.075-.017.121-.025.2-.042.196-.042.2-.046.196-.046.196-.046.196-.05.196-.05.196-.054.192-.054.196-.054.192-.058.188-.058.192-.063.188-.063.188-.063.188-.067.183-.067.183-.071.183-.071.179-.075.179-.075.179-.075.175-.079.171-.083.171-.079.171-.088.167-.083.163-.088.163-.092.163-.092.158-.096.079-.046.075-.046.058-.038.021-.013.075-.05.075-.046.075-.05.075-.05.075-.05.071-.054.075-.05.071-.05.071-.054.071-.054.067-.05.071-.054.067-.054.067-.054.067-.058.067-.054.067-.058.063-.054.067-.058.063-.058.063-.058.058-.058.063-.058.058-.058.058-.063.058-.058.058-.063.058-.063.054-.058.054-.063.054-.067.054-.063.05-.063.054-.067.05-.063.05-.067.046-.067.05-.067.046-.067.046-.067.046-.071.042-.067.046-.071.042-.071.042-.067.042-.071.038-.075.038-.071.038-.071.038-.075.038-.075.033-.071.033-.075.033-.075.033-.079.029-.075.029-.079.029-.075.029-.079.025-.079.025-.079.025-.083.025-.079.021-.083.025-.079.042-.175.038-.171.038-.171.013-.05.021-.117.033-.167.029-.167.029-.167.025-.163.021-.163.021-.163.017-.163.013-.158.013-.158.013-.158.008-.158.004-.154.004-.154v-.304l-.004-.154-.004-.15-.008-.146-.008-.15-.013-.146-.013-.146-.013-.146-.017-.142-.021-.142-.021-.142-.021-.142-.025-.138-.025-.138-.029-.138-.029-.138-.033-.133-.033-.133-.033-.133-.038-.133-.038-.129-.038-.129-.042-.129-.042-.129-.042-.125-.046-.125-.046-.125-.046-.125-.05-.121-.05-.121-.054-.121-.05-.117-.054-.117-.054-.117-.058-.117-.054-.117-.058-.113-.063-.113-.058-.113-.063-.108-.063-.108-.063-.108-.063-.108-.067-.104-.067-.104-.063-.104-.071-.104-.067-.1-.067-.1-.071-.1-.071-.1-.071-.096-.071-.096-.071-.096-.071-.092-.071-.092-.075-.092-.071-.092-.075-.088-.075-.088-.071-.088h-.004l-.071-.083-.075-.088-.075-.083-.075-.083-.075-.079-.075-.079-.075-.079-.075-.079-.075-.075-.075-.075-.075-.075-.075-.075-.075-.071-.15-.142-.15-.133-.146-.133-.146-.125-.146-.121-.142-.117-.138-.113-.138-.108-.133-.1-.133-.1-.129-.092-.125-.088-.121-.083-.117-.079-.113-.071-.104-.071-.05-.029-.054-.033-.092-.058-.092-.033-.071-.025-.029-.013-.1-.038-.108-.033-.113-.038-.113-.033-.117-.029-.125-.033-.125-.033-.129-.029-.133-.029-.138-.025-.138-.029-.146-.025-.146-.025-.146-.025-.154-.021-.154-.025-.158-.021-.163-.017-.163-.021-.167-.017-.167-.017-.171-.017-.175-.013-.175-.013-.179-.013-.183-.013-.183-.008-.183-.008-.188-.004-.188-.008-.192-.004-.192-.004h-.5880000000000001z" fill="#262626"/><path d="M56.292 159.634s5.871.1 5.367-7.092c-.508-7.188-18.639-16.505-18.131-47.904.508-31.398 30.861-70.301 83.457-66.851 44.77 2.938 67.076 50.133 66.343 67.66-.808 19.239-12.468 36.628-16.822 49.691" fill="#d6efff"/><path d="M120.626 36.691h.604l.3.004.304.004.3.004.304.004.304.008.304.008.304.008.304.008.304.013.308.008.304.013.308.017.308.013.308.017.308.017.308.017.308.021.313.017.308.021.267.021.263.017.267.021.263.021.263.025.267.025.263.021.258.029.263.025.263.029.258.025.258.029.263.033.258.029.258.033.258.033.254.033.258.038.254.038.258.038.254.038.254.038.254.042.254.042.254.042.25.042.254.046.25.046.25.046.25.046.25.046.25.05.25.05.246.05.25.05.246.054.246.05.246.054.246.058.246.054.246.058.246.058.242.058.242.058.242.063.246.058.238.063.242.067.242.063.238.067.242.063.238.067.238.071.238.067.238.071.238.067.238.071.233.075.238.071.233.075.233.071.233.075.233.079.233.075.233.075.229.079.229.079.233.079.229.083.229.079.229.083.229.083.225.083.229.083.225.088.225.083.225.088.225.088.225.092.225.088.225.092.221.088.221.092.225.092.221.096.221.092.221.096.217.096.221.096.217.096.221.096.217.1.217.096.217.1.217.1.217.1.213.104.217.1.213.104.213.104.213.104.213.104.213.104.213.108.208.108.213.104.208.108.208.113.208.108.208.108.208.113.204.113.208.113.204.113.208.113.204.113.204.117.204.117.204.113.2.117.204.121.2.117.2.117.2.121.2.121.2.121.2.121.2.121.196.121.2.125.196.121.196.125.196.125.196.125.192.125.196.125.196.129.192.125.383.258.383.258.379.258.379.263.375.267.375.267.371.267.142.104.229.171.367.271.367.275.363.279.363.279.358.279.354.283.354.288.354.288.35.288.35.292.346.292.342.292.342.296.342.296.338.3.333.3.333.304.333.3.329.308.325.304.325.308.321.308.321.313.321.313.317.313.313.317.313.317.308.317.308.321.308.317.3.321.304.325.3.325.296.321.296.329.292.325.292.329.288.329.288.329.283.329.283.333.279.333.279.333.275.333.275.338.271.338.271.333.267.338.267.342.263.338.263.342.258.338.258.342.254.342.254.342.25.346.246.342.25.346.242.342.242.346.242.346.238.346.238.346.233.346.229.346.229.346.229.35.225.346.221.346.221.35.221.346.217.35.213.35.213.346.213.35.208.346.204.35.204.35.204.346.2.35.196.346.196.35.196.346.192.35.188.346.188.346.183.346.183.35.183.346.179.346.175.346.175.342.171.346.171.346.171.342.163.342.167.346.163.342.158.342.158.342.154.338.154.342.15.338.15.338.15.338.146.338.142.338.142.333.138.333.138.333.133.333.133.329.129.333.129.329.125.329.125.325.121.329.121.325.117.321.117.325.117.321.108.321.113.321.104.317.108.317.1.317.104.317.096.313.1.313.092.308.092.308.092.308.088.308.088.304.083.3.083.304.079.3.083.308.071.288.075.292.071.296.071.292.067.288.063.292.063.283.063.288.058.279.058.283.054.279.05.275.054.275.046.275.046.271.046.271.042.267.038.267.038.263.038.258.033.263.033.254.029.254.025.254.025.25.025.246.021.246.017.246.017.242.017.238.013.238.008.233.008.229.004.229.004.229.004.225v.221l-.004.217-.004.217-.008.217-.008.208-.013.229-.008.229-.017.225-.013.225-.017.229-.017.225-.017.225-.017.229-.021.225-.021.225-.021.225-.021.225-.021.225-.025.225-.025.225-.025.221-.025.225-.029.225-.029.225-.029.221-.029.225-.029.221-.033.225-.033.221-.033.225-.033.221-.033.221-.038.221-.038.225-.038.221-.038.221-.038.221-.042.221-.042.221-.042.221-.042.217-.042.221-.046.221-.042.217-.046.221-.046.221-.046.217-.096.438-.1.433-.1.438-.104.433-.104.433-.113.433-.108.429-.117.429-.117.429-.117.429-.125.429-.121.425-.125.425-.129.425-.129.421-.133.425-.133.421-.138.421-.138.417-.142.421-.142.417-.146.417-.146.417-.146.413-.15.413-.15.413-.15.413-.154.408-.154.408-.158.408-.154.408-.163.404-.158.404-.163.404-.163.404-.163.4-.163.4-.167.4-.167.396-.167.396-.167.396-.167.396-.171.392-.171.392-.171.392-.171.392-.171.388-.171.388-.171.388-.175.383-.171.383-.346.763-.346.758-.346.754-.088.188-.263.563-.346.746-.342.738-.683 1.463-.675 1.438-.333.713-.329.708-.325.7-.317.696-.317.692-.308.683-.154.342-.15.338-.15.338-.15.338-.146.333-.142.333-.146.329-.142.329-.138.329-.138.329-.133.325-.133.325-.133.321-.129.321-.125.321-.125.317-.125.317-.121.317-.117.313-.117.313-.113.308-.075.208-.033.1-.108.308-.104.304-.154.079-.075-.154.1-.308.104-.308.038-.104.071-.208.108-.313.113-.317.113-.317.117-.317.121-.317.121-.321.121-.325.129-.325.125-.325.129-.325.133-.329.133-.329.133-.329.138-.333.142-.338.138-.333.142-.338.146-.338.146-.342.146-.342.15-.342.3-.688.308-.696.308-.7.317-.708.321-.713.321-.717.658-1.45.663-1.467.338-.746.333-.746.254-.567.083-.188.338-.754.338-.763.333-.767.171-.383.167-.388.167-.388.167-.388.167-.392.167-.388.163-.392.167-.396.163-.392.163-.396.163-.396.163-.396.163-.4.158-.4.158-.4.158-.4.158-.404.154-.404.154-.404.154-.404.15-.408.15-.404.15-.408.15-.413.146-.408.142-.413.146-.413.142-.413.138-.413.138-.417.138-.417.133-.417.133-.417.129-.421.129-.417.125-.421.125-.421.125-.425.117-.421.121-.425.113-.425.113-.425.113-.425.108-.429.104-.429.104-.429.1-.429.096-.429.096-.429.092-.433.088-.433.046-.217.042-.217.042-.217.042-.217.042-.217.042-.221.038-.217.038-.217.038-.221.038-.217.038-.217.033-.221.033-.217.033-.221.033-.217.033-.221.029-.221.033-.221.029-.217.029-.221.025-.221.029-.221.025-.221.025-.221.025-.221.021-.221.025-.221.021-.221.021-.221.021-.221.017-.221.021-.225.017-.221.017-.221.013-.225.017-.221.013-.225.013-.221.013-.225.008-.221.013-.225.008-.221.004-.204.004-.204.004-.208v-.208l-.004-.213-.004-.217-.008-.221-.008-.221-.008-.221-.013-.225-.017-.229-.017-.233-.017-.233-.021-.233-.025-.242-.025-.238-.025-.246-.029-.242-.033-.25-.033-.25-.038-.25-.038-.254-.038-.258-.042-.258-.046-.258-.046-.267-.046-.263-.054-.267-.05-.271-.054-.271-.058-.271-.058-.275-.063-.275-.063-.279-.063-.279-.067-.283-.071-.283-.071-.288-.075-.288-.075-.288-.075-.279-.004-.013-.079-.292-.079-.292-.083-.296-.088-.3-.088-.296-.092-.3-.092-.304-.096-.304-.096-.304-.096-.304-.1-.308-.104-.308-.104-.308-.108-.313-.108-.313-.113-.313-.113-.317-.117-.317-.117-.317-.117-.317-.125-.321-.121-.321-.125-.321-.129-.321-.129-.325-.133-.325-.133-.325-.138-.325-.138-.329-.142-.329-.142-.329-.142-.329-.15-.329-.146-.333-.154-.329-.15-.333-.154-.333-.158-.333-.158-.338-.163-.333-.163-.338-.167-.333-.167-.338-.171-.338-.171-.338-.175-.338-.175-.342-.175-.338-.183-.342-.179-.338-.183-.342-.188-.338-.188-.342-.192-.342-.192-.342-.196-.338-.196-.342-.2-.342-.2-.342-.2-.342-.208-.342-.204-.342-.208-.342-.213-.342-.213-.342-.217-.342-.217-.342-.221-.338-.221-.342-.221-.342-.229-.342-.225-.338-.229-.342-.233-.338-.104-.15-.129-.188-.233-.342-.238-.338-.242-.338-.242-.338-.242-.338-.246-.338-.25-.338-.25-.333-.25-.338-.254-.333-.258-.333-.258-.333-.258-.333-.263-.329-.267-.333-.267-.329-.267-.329-.271-.329-.271-.325-.275-.329-.279-.325-.279-.325-.279-.325-.283-.321-.283-.325-.288-.321-.288-.321-.292-.317-.292-.317-.296-.317-.3-.317-.296-.317-.304-.313-.3-.313-.308-.308-.304-.308-.313-.308-.308-.308-.313-.304-.317-.304-.317-.304-.321-.3-.321-.3-.325-.296-.325-.3-.329-.292-.329-.296-.329-.292-.333-.288-.338-.292-.338-.288-.338-.283-.342-.283-.346-.283-.346-.279-.346-.275-.35-.279-.354-.275-.354-.271-.354-.271-.358-.267-.358-.267-.363-.267-.229-.163-.138-.1-.363-.258-.371-.263-.367-.254-.371-.254-.375-.254-.375-.25-.379-.25-.192-.121-.188-.121-.192-.125-.192-.121-.192-.121-.192-.121-.192-.121-.192-.117-.196-.121-.196-.117-.192-.117-.196-.117-.196-.117-.196-.117-.196-.117-.2-.113-.196-.113-.2-.117-.196-.113-.2-.108-.2-.113-.2-.113-.2-.108-.204-.113-.2-.108-.204-.108-.2-.104-.204-.108-.204-.108-.204-.104-.204-.104-.204-.104-.208-.104-.204-.104-.208-.1-.204-.104-.208-.1-.208-.1-.208-.1-.213-.1-.208-.096-.208-.1-.213-.096-.213-.096-.208-.096-.213-.096-.213-.096-.217-.092-.213-.092-.213-.092-.217-.092-.217-.092-.213-.092-.217-.088-.217-.088-.217-.088-.221-.088-.217-.088-.221-.083-.217-.088-.221-.083-.221-.083-.221-.079-.221-.083-.221-.079-.221-.083-.225-.079-.225-.079-.221-.075-.225-.079-.225-.075-.225-.075-.225-.075-.229-.075-.225-.071-.229-.075-.225-.071-.229-.071-.229-.071-.229-.067-.229-.071-.229-.067-.233-.067-.229-.067-.233-.063-.233-.067-.233-.063-.233-.063-.233-.063-.233-.058-.233-.063-.238-.058-.233-.058-.238-.058-.238-.054-.238-.058-.238-.054-.238-.054-.121-.025-.117-.029-.242-.05-.238-.054-.242-.05-.242-.05-.242-.046-.242-.05-.242-.046-.242-.046-.246-.046-.242-.046-.246-.046-.246-.042-.246-.042-.246-.042-.246-.038-.246-.042-.246-.038-.25-.038-.246-.033-.25-.038-.25-.033-.25-.033-.25-.033-.25-.033-.254-.029-.25-.029-.254-.029-.254-.029-.25-.025-.254-.025-.254-.025-.258-.025-.254-.021-.254-.025-.258-.021-.258-.017-.254-.021-.258-.017-.263-.017-.304-.021-.304-.017-.304-.017-.304-.017-.304-.017-.3-.013-.304-.013h-.013l-.288-.013-.3-.013-.304-.013-.3-.008-.3-.008-.296-.008-.3-.008-.296-.004-.3-.008-.296-.004h-.296l-.296-.004h-1.476l-.292.004-.292.004-.292.004-.292.008-.292.004-.288.008-.292.008-.288.008-.292.013-.288.008-.288.013-.288.013-.283.017-.288.013-.288.017-.283.017-.283.017-.283.017-.283.021-.283.021-.246.017-.038.004-.283.021-.279.021-.283.025-.279.021-.279.025-.279.025-.279.029-.279.025-.275.029-.279.029-.275.029-.275.029-.279.033-.275.029-.271.033-.275.038-.275.033-.271.033-.275.038-.271.038-.271.038-.271.038-.271.042-.271.042-.267.038-.271.046-.267.042-.267.042-.267.046-.267.046-.267.046-.267.046-.263.046-.267.05-.263.05-.263.05-.263.05-.263.05-.154.033-.108.021-.263.054-.258.05-.263.054-.258.058-.258.054-.258.058-.258.054-.258.058-.258.058-.254.063-.258.058-.254.063-.254.063-.254.063-.254.063-.254.063-.25.067-.254.067-.25.067-.25.067-.254.067-.25.067-.246.071-.25.071-.25.071-.246.071-.25.071-.246.075-.246.071-.246.075-.246.075-.242.075-.246.079-.242.075-.246.079-.242.079-.242.079-.242.079-.238.079-.242.083-.238.079-.217.075-.025.008-.238.083-.238.083-.238.083-.238.088-.238.083-.238.088-.233.088-.233.088-.238.088-.233.088-.233.092-.229.092-.233.088-.233.092-.229.096-.229.092-.233.092-.229.096-.225.096-.229.096-.229.096-.225.096-.229.096-.225.1-.225.1-.225.096-.225.1-.225.104-.221.1-.225.1-.221.104-.221.104-.221.1-.221.108-.221.104-.221.104-.217.104-.217.108-.221.108-.217.108-.217.108-.217.108-.213.108-.217.113-.213.108-.217.113-.213.113-.213.113-.213.113-.213.113-.208.117-.213.113-.208.117-.208.117-.208.117-.208.117-.208.117-.208.121-.204.117-.208.121-.204.121-.204.117-.204.121-.204.125-.204.121-.2.121-.204.125-.2.125-.204.121-.2.125-.2.125-.196.129-.2.125-.196.125-.2.129-.196.129-.196.125-.196.129-.392.263-.388.258-.383.267-.383.263-.379.271-.379.267-.375.271-.371.271-.004.004-.371.275-.371.275-.367.279-.367.279-.363.283-.358.283-.358.288-.354.288-.354.288-.35.292-.35.292-.346.296-.346.296-.342.296-.338.3-.338.304-.338.3-.329.304-.329.308-.329.308-.325.308-.325.308-.321.313-.317.317-.317.313-.313.317-.313.321-.308.317-.304.321-.304.325-.304.325-.296.325-.3.325-.292.329-.292.329-.292.329-.288.333-.283.329-.283.338-.279.333-.279.338-.275.338-.271.338-.271.342-.271.342-.263.342-.263.346-.263.342-.258.346-.254.346-.254.35-.229.317-.021.033-.25.346-.246.354-.246.35-.242.354-.238.35-.238.354-.233.358-.233.354-.229.358-.225.354-.225.363-.221.358-.221.358-.217.363-.213.363-.213.363-.208.363-.208.363-.204.363-.2.367-.2.367-.196.367-.196.367-.192.367-.188.367-.188.371-.183.367-.183.371-.179.371-.175.371-.175.371-.171.371-.171.375-.167.371-.163.371-.163.375-.158.375-.158.371-.154.375-.15.375-.15.375-.146.375-.142.375-.142.375-.138.375-.138.379-.133.375-.129.375-.129.379-.125.375-.121.375-.121.379-.121.375-.113.379-.113.375-.071.238-.042.142-.104.375-.108.375-.1.379-.1.375-.1.379-.092.375-.092.375-.092.379-.088.375-.083.375-.079.375-.079.379-.079.375-.071.375-.071.375-.071.375-.063.375-.067.371-.058.375-.058.375-.054.371-.054.375-.05.371-.046.371-.046.375-.042.371-.038.371-.038.367-.033.371-.029.371-.029.367-.025.371-.025.367-.017.367-.021.367-.013.363-.013.367-.008.367-.008.363-.004.363-.004.363-.004.358v.708l.004.354.004.35.004.35.008.346.013.346.008.342.013.342.013.338.017.338.017.338.017.333.021.329.021.329.025.329.025.325.025.325.025.321.029.321.029.321.033.317.033.313.033.313.033.313.038.308.038.308.042.304.038.304.042.304.046.3.042.3.046.296.046.296.05.292.05.292.05.292.05.288.054.288.054.283.054.283.058.283.054.279.058.279.063.275.058.275.063.275.063.271.063.271.067.267.067.267.067.267.067.263.067.263.071.263.071.258.071.254.071.258.075.254.075.25.075.254.075.246.079.25.075.246.079.246.079.242.079.242.083.242.079.238.083.238.083.238.083.233.083.233.088.233.088.229.083.229.088.225.092.229.088.221.088.225.092.221.092.221.092.217.092.221.092.213.092.217.092.213.096.213.096.213.092.208.096.208.096.204.1.208.096.2.096.204.1.204.096.2.1.196.1.2.096.196.1.196.1.192.1.192.1.192.104.192.1.188.1.188.104.188.1.188.104.183.1.183.104.179.104.183.104.179.204.354.208.35.208.346.208.342.208.338.213.333.208.329.208.325.208.317.213.317.208.313.208.308.208.304.208.3.204.296.208.292.204.288.204.288.204.279.2.279.2.275.2.271.196.267.392.525.383.513.375.5.367.483.358.479.342.463.171.229.167.225.163.225.158.221.158.217.15.217.15.213.146.213.142.208.142.208.133.204.129.204.129.2.121.2.117.196.117.196.054.1.054.096.054.096.05.096.05.096.05.096.046.096.05.096.046.092.042.096.046.092.042.096.038.092.042.092.038.092.038.096.033.092.033.092.033.092.029.088.033.092.025.092.029.092.025.088.025.092.021.088.021.092.017.088.021.092.017.088.013.088.013.092.013.088.008.088.008.088.008.088.008.171.008.167.004.167.004.158v.317l-.004.154-.008.154-.004.146-.013.15-.013.142-.013.142-.017.142-.017.138-.021.133-.021.133-.021.129-.025.129-.029.125-.029.121-.029.121-.033.121-.033.117-.033.113-.038.113-.038.108-.038.108-.042.104-.042.104-.046.104-.046.096-.046.1-.046.096-.05.092-.05.092-.05.088-.05.088-.054.088-.054.083-.058.083-.054.079-.058.075-.058.079-.058.071-.058.075-.063.071-.058.067-.063.071-.063.063-.063.067-.063.058-.067.063-.063.058-.067.058-.067.054-.067.054-.067.054-.067.05-.067.05-.067.046-.067.046-.067.046-.071.046-.067.042-.067.042-.071.038-.067.038-.067.038-.067.038-.071.033-.067.033-.067.033-.067.029-.067.029-.067.029-.067.029-.067.025-.067.025-.063.025-.067.025-.129.042-.125.038-.121.038-.121.033-.117.029-.117.025-.108.025-.104.021-.104.017-.058.008-.038.004-.092.017-.088.008-.083.008-.079.008-.071.008-.063.004-.108.004-.083.004h-.07100000000000001l-.117-.121.121-.121h.063l.075-.004.104-.008.063-.004.067-.004.071-.008.079-.013.083-.013.092-.013.033-.004.058-.013.096-.017.104-.021.104-.025.108-.025.113-.029.113-.033.121-.038.117-.038.125-.046.058-.021.063-.025.063-.025.063-.025.063-.025.063-.029.063-.029.067-.029.063-.033.063-.033.067-.033.063-.033.063-.038.067-.038.063-.038.063-.038.067-.042.063-.042.063-.046.063-.046.063-.046.067-.046.058-.05.063-.05.063-.05.063-.054.058-.054.063-.058.058-.054.058-.063.058-.058.058-.063.058-.067.058-.063.054-.067.054-.071.054-.071.054-.071.054-.075.05-.075.05-.079.05-.079.05-.079.05-.083.046-.083.046-.088.046-.092.042-.088.042-.092.042-.096.042-.096.038-.1.038-.1.038-.104.033-.104.033-.104.033-.113.029-.108.029-.117.025-.113.029-.121.021-.117.025-.125.021-.125.017-.125.017-.129.017-.133.013-.133.013-.138.008-.138.008-.142.004-.146.004-.146.004-.15-.004-.15v-.154l-.004-.158-.008-.158-.008-.163-.013-.163-.008-.083-.008-.079-.008-.083-.013-.079-.013-.083-.017-.083-.017-.079-.017-.083-.017-.083-.021-.083-.025-.083-.021-.088-.025-.083-.029-.083-.025-.088-.029-.083-.033-.088-.029-.083-.033-.088-.038-.088-.033-.088-.038-.088-.038-.088-.042-.088-.042-.092-.042-.088-.046-.092-.046-.088-.046-.092-.046-.092-.05-.092-.05-.092-.05-.092-.054-.096-.054-.092-.054-.096-.113-.188-.117-.192-.125-.196-.125-.196-.133-.196-.133-.2-.142-.204-.142-.204-.146-.208-.15-.208-.154-.213-.158-.213-.163-.217-.167-.221-.167-.221-.171-.225-.35-.458-.363-.471-.371-.483-.383-.492-.392-.508-.396-.521-.204-.267-.204-.271-.204-.271-.208-.275-.204-.283-.213-.283-.208-.288-.213-.292-.213-.296-.213-.296-.213-.304-.217-.308-.213-.313-.217-.317-.217-.317-.213-.325-.217-.329-.217-.333-.217-.338-.213-.342-.217-.35-.213-.35-.217-.358-.104-.179-.108-.179-.108-.183-.104-.183-.108-.183-.104-.188-.104-.188-.108-.188-.104-.192-.104-.192-.104-.192-.104-.192-.104-.196-.104-.196-.104-.2-.1-.196-.104-.2-.1-.204-.104-.2-.079-.167-.021-.038-.1-.208-.1-.204-.1-.208-.1-.213-.1-.208-.096-.213-.1-.217-.096-.213-.096-.217-.096-.217-.096-.221-.096-.221-.096-.221-.092-.225-.096-.225-.092-.225-.092-.229-.092-.229-.092-.233-.088-.229-.092-.233-.088-.238-.088-.238-.088-.238-.088-.242-.083-.238-.088-.246-.083-.242-.083-.246-.083-.25-.079-.25-.083-.25-.079-.25-.079-.254-.079-.258-.075-.254-.079-.258-.075-.263-.075-.263-.075-.263-.071-.263-.071-.267-.071-.271-.071-.267-.071-.275-.067-.271-.067-.275-.067-.279-.063-.275-.063-.283-.063-.279-.063-.283-.063-.288-.058-.283-.058-.292-.058-.288-.054-.292-.054-.296-.054-.296-.05-.296-.054-.3-.05-.3-.046-.304-.05-.304-.046-.304-.042-.308-.046-.308-.042-.313-.042-.313-.038-.317-.038-.317-.038-.321-.038-.321-.033-.321-.033-.325-.029-.325-.029-.329-.029-.329-.029-.333-.025-.333-.025-.338-.021-.338-.021-.338-.021-.342-.017-.346-.017-.346-.017-.346-.013-.35-.013-.35-.008-.354-.008-.354-.008-.358-.004-.358-.004-.363-.004-.363v-.367l.004-.367v-.371l.008-.371.004-.371.013-.375.013-.375.017-.375.021-.375.021-.375.025-.375.025-.379.029-.375.033-.379.038-.379.038-.379.042-.379.042-.379.046-.383.05-.379.05-.379.054-.383.058-.383.058-.383.063-.379.067-.383.067-.383.071-.383.075-.383.075-.388.079-.383.079-.383.088-.383.083-.388.092-.383.092-.388.096-.383.096-.383.1-.388.104-.383.104-.388.038-.142.071-.242.108-.388.117-.383.117-.388.117-.383.121-.388.125-.383.129-.388.129-.383.129-.383.138-.388.138-.383.138-.383.142-.383.146-.383.15-.383.15-.383.154-.383.154-.383.158-.383.158-.379.167-.383.167-.383.167-.379.171-.379.175-.379.175-.383.179-.379.183-.375.183-.379.188-.379.188-.375.192-.379.196-.375.196-.375.2-.375.2-.375.208-.371.204-.375.213-.371.213-.371.213-.371.217-.371.221-.371.221-.367.225-.367.229-.371.229-.363.233-.367.238-.367.238-.363.238-.363.246-.363.242-.358.25-.363.25-.358.021-.033.233-.325.254-.354.258-.358.258-.354.267-.354.263-.35.271-.35.271-.354.271-.346.275-.35.279-.346.279-.346.283-.346.288-.342.288-.342.292-.342.292-.338.296-.342.296-.333.3-.338.304-.333.304-.333.308-.333.308-.329.317-.329.313-.325.317-.325.321-.325.321-.325.325-.321.329-.321.329-.317.333-.317.333-.317.338-.313.338-.313.342-.308.346-.308.346-.308.35-.304.35-.304.354-.304.354-.3.358-.296.363-.296.363-.296.367-.292.367-.292.371-.292.375-.288.375-.283.379-.283.004-.004.375-.279.383-.279.383-.275.388-.275.392-.275.392-.271.396-.271.396-.267.2-.133.2-.133.2-.129.2-.133.2-.129.204-.129.204-.129.2-.129.204-.129.208-.129.204-.129.204-.125.208-.129.204-.125.208-.125.208-.125.208-.125.208-.121.213-.125.208-.121.213-.125.213-.121.213-.121.213-.121.213-.117.213-.121.217-.117.213-.121.217-.117.217-.117.217-.117.217-.117.217-.113.221-.117.217-.113.221-.113.221-.113.221-.113.221-.113.221-.108.225-.113.221-.108.225-.108.225-.108.225-.108.225-.108.225-.108.229-.104.225-.104.229-.104.225-.104.229-.104.229-.104.233-.1.229-.104.229-.1.233-.1.233-.1.233-.1.233-.096.233-.1.233-.096.233-.096.238-.096.238-.096.233-.092.238-.096.242-.092.238-.092.238-.092.242-.092.238-.092.242-.088.242-.092.242-.088.242-.088.242-.088.246-.083.025-.008.217-.079.246-.083.246-.083.246-.083.246-.083.246-.083.25-.079.246-.079.25-.079.25-.079.25-.079.25-.079.25-.075.25-.075.254-.075.25-.075.254-.075.254-.071.254-.075.254-.071.254-.071.258-.071.254-.067.258-.071.258-.067.254-.067.263-.067.258-.067.258-.063.258-.067.263-.063.263-.063.263-.063.258-.058.267-.063.263-.058.263-.058.267-.058.263-.054.267-.058.267-.054.267-.054.108-.025.158-.029.267-.054.271-.054.267-.05.271-.05.271-.05.271-.05.271-.046.271-.046.271-.05.271-.046.275-.042.275-.046.275-.042.271-.042.279-.042.275-.042.275-.042.279-.038.275-.038.279-.038.279-.038.279-.033.279-.038.279-.033.279-.033.283-.033.279-.029.283-.033.283-.029.283-.029.283-.025.283-.029.288-.025.283-.025.288-.025.283-.025.288-.021.288-.025h.042l.246-.021.292-.017.288-.021.292-.017.288-.017.292-.017.292-.017.292-.013.292-.017.292-.013.292-.013.296-.008.296-.013.292-.008.296-.008.296-.004.296-.008.3-.004.296-.004.296-.004.3-.004h.8959999999999999z" fill="#262626"/><path d="M174.001 154.725c7.926 1.413 19.652 6.326 26.119 10.192 3.767 2.254 11.259 13.655 7.784 17.251-3.067 3.175-14.714 1.067-25.419.729-8.555-.267-16.301 1.333-20.118 2.271-8.588 2.104-27.531 13.722-43.937 13.53-25.648-.3-48.516-11.993-53.05-12.397-4.538-.404-21.393 1.375-25.527-.325-4.129-1.7-10.288-14.097-9.317-20.822.975-6.726 14.472-7.376 18.485-6.709" fill="#d6efff"/><path d="M174.209 154.642l.188.033.213.038.171.033.192.033.192.042.196.038.196.042.2.042.2.042.2.046.2.046.2.046.204.05.204.046.204.05.208.05.204.054.208.054.213.054.208.054.213.054.421.117.429.117.429.125.433.125.433.129.438.133.438.138.442.138.446.146.442.146.446.15.446.15.45.154.446.158.45.158.446.163.45.167.45.167.446.167.446.171.45.171.442.175.446.179.442.175.442.179.438.183.438.183.438.179.429.188.429.183.429.188.421.188.421.188.417.188.413.188.413.192.404.188.4.192.396.192.392.188.383.192.383.188.375.188.371.192.363.188.358.188.354.188.346.188.338.183.333.183.325.183.317.183.313.183.096.054.096.063.096.063.1.067.1.071.1.075.1.075.1.079.104.083.104.083.104.088.104.088.104.096.108.096.108.096.108.1.108.104.108.104.108.108.108.113.113.113.108.113.113.121.113.117.113.121.113.125.113.125.113.129.113.129.113.133.113.133.113.133.113.138.113.142.117.138.113.142.113.146.113.146.113.146.108.15.113.15.113.15.108.154.113.15.108.158.113.154.108.158.108.158.104.158.108.163.108.158.104.163.104.167.104.163.104.167.1.163.1.167.1.167.1.167.096.171.096.167.096.171.096.167.092.171.092.171.092.171.088.167.088.171.088.171.083.171.083.171.079.171.079.171.079.171.075.171.075.171.071.171.071.171.071.171.067.167.063.171.063.167.063.171.058.167.054.167.054.167.054.167.05.163.046.167.046.163.042.163.038.163.038.163.038.163.029.158.029.158.029.158.021.154.021.158.021.154.013.154.013.15.008.15.008.15v.371l-.004.075-.004.071-.004.071-.004.075-.004.071-.008.071-.008.071-.008.071-.008.071-.013.067-.013.071-.013.067-.013.071-.017.067-.013.067-.017.067-.017.071-.021.063-.021.067-.021.067-.021.067-.021.063-.025.063-.025.067-.025.063-.029.063-.029.058-.029.063-.029.063-.033.058-.033.058-.033.058-.038.058-.033.058-.038.058-.042.054-.038.054-.042.054-.042.054-.046.054-.046.05-.046.054-.046.05-.042.042-.042.046-.046.042-.046.042-.046.042-.046.038-.046.042-.046.038-.05.038-.05.038-.05.038-.05.038-.05.038-.054.033-.05.033-.054.038-.054.033-.058.033-.108.063-.117.063-.117.058-.117.058-.121.054-.125.054-.129.054-.129.05-.129.046-.133.046-.138.046-.138.042-.142.042-.142.038-.146.038-.146.038-.15.033-.154.033-.154.029-.154.029-.158.029-.163.025-.163.025-.163.025-.167.025-.171.021-.171.021-.171.017-.175.021-.179.017-.179.013-.179.017-.183.013-.183.013-.188.008-.188.013-.188.008-.192.008-.196.004-.196.008-.196.004-.2.004h-.2l-.2.004h-.824l-.208-.004-.421-.004-.433-.008-.433-.013-.442-.013-.442-.017-.454-.021-.454-.021-.458-.025h-.017l-.446-.025-.471-.025-.471-.029-.475-.029-.479-.029-.967-.063-.979-.067-.988-.067-.996-.067-1-.067-.5-.033-.504-.029-.504-.029-.504-.029-.504-.029-.504-.025-.504-.025-.504-.021-.5-.021-.504-.017-.5-.017-.5-.017-.396-.008-.392-.004-.396-.004h-.784l-.388.004-.388.008-.388.008-.383.008-.383.017-.379.013-.379.017-.217.013-.158.008-.375.021-.375.021-.371.025-.367.029-.367.025-.363.029-.358.033-.358.033-.358.033-.35.038-.35.038-.346.038-.346.038-.342.042-.338.042-.333.046-.333.042-.329.046-.325.046-.321.046-.317.05-.317.046-.308.05-.308.05-.304.05-.3.054-.292.05-.292.05-.288.054-.283.05-.279.054-.275.054-.271.05-.267.054-.263.054-.254.05-.254.054-.246.054-.242.05-.471.104-.454.1-.429.1-.408.1-.388.092-.363.092-.196.05-.2.054-.2.054-.208.063-.213.063-.213.067-.221.071-.221.071-.225.079-.233.079-.233.079-.238.088-.242.088-.242.092-.25.092-.25.096-.258.096-.258.1-.263.104-.263.108-.271.104-.271.113-.275.113-.275.113-.567.238-.575.242-.592.25-.596.258-.613.263-.621.271-1.271.554-1.313.571-.667.292-.679.296-.683.296-.696.296-.7.3-.713.3-.717.304-.721.3-.367.15-.363.15-.371.15-.367.15-.371.15-.233.092-.138.054-.375.15-.375.146-.375.146-.379.146-.379.146-.379.146-.383.142-.383.142-.383.142-.383.142-.388.138-.388.138-.388.138-.388.133-.392.138-.392.129-.392.133-.392.129-.392.129-.396.125-.396.125-.071.021-.325.1-.396.121-.396.117-.4.117-.396.117-.4.108-.4.113-.4.108-.4.104-.4.104-.4.1-.4.096-.4.096-.404.096-.4.088-.404.088-.4.088-.404.079-.4.079-.404.075-.2.038-.2.038h-.004l-.2.033-.2.033-.2.033-.2.033-.204.033-.2.029-.2.029-.2.029-.204.029-.2.029-.2.025-.2.025-.2.025-.2.025-.204.025-.2.021-.2.021-.2.021-.2.021-.2.017-.2.017-.2.017-.2.017-.2.017-.2.013-.2.013-.196.013-.2.008-.2.013-.2.008-.196.008-.2.004-.2.008-.196.004h-.2l-.196.004h-.792l-.304-.004-.304-.008-.3-.004h-.042l-.263-.008-.304-.008-.3-.013-.304-.008-.3-.013-.3-.013-.3-.013-.3-.017-.3-.017-.3-.017-.3-.017-.3-.021-.3-.017-.296-.021-.3-.021-.296-.025-.296-.021-.3-.025-.296-.025-.296-.025-.296-.029-.296-.025-.292-.029-.296-.029-.296-.033-.292-.029-.292-.033-.296-.029-.292-.033-.292-.038-.292-.033-.288-.033-.238-.033-.054-.004-.292-.038-.288-.042-.288-.038-.288-.038-.288-.042-.288-.042-.288-.042-.288-.042-.571-.088-.567-.092-.567-.092-.567-.096-.563-.1-.558-.1-.558-.1-.554-.104-.554-.108-.55-.108-.546-.113-.546-.113-.542-.117-.542-.117-.538-.121-.533-.121-.533-.121-.529-.125-.525-.125-.525-.129-.517-.125-.517-.133-.517-.129-.508-.133-.508-.133-.504-.133-.504-.138-.496-.138-.496-.138-.492-.138-.488-.138-.488-.142-.479-.142-.479-.142-.367-.108-.108-.033-.471-.142-.467-.146-.463-.142-.458-.146-.454-.142-.454-.146-.446-.142-.446-.146-.438-.142-.438-.146-.429-.146-.429-.142-.425-.142-.417-.146-.417-.142-.413-.142-.404-.142-.404-.138-.396-.142-.783-.275-.763-.275-.746-.267-.729-.267-.708-.258-.688-.254-1.313-.483-1.233-.458-.583-.217-.563-.208-.542-.196-.517-.188-.496-.175-.471-.167-.225-.079-.221-.075-.213-.071-.208-.071-.2-.063-.196-.063-.188-.063-.183-.054-.175-.054-.167-.046-.163-.046-.154-.042-.075-.021-.071-.017-.142-.033-.133-.029-.125-.029-.117-.021-.108-.017-.05-.008-.046-.008-.05-.004-.042-.004-.104-.008-.104-.008-.113-.008-.117-.008-.121-.008-.125-.004-.129-.004-.138-.008-.279-.004-.3-.008h-.313l-.329-.004-.342.004-.354.004-.367.004-.379.004-.392.008-.404.013-.413.008-.421.013-.871.029-.904.029-.929.033-.954.038-.967.033-.983.033-.992.033-.496.013-.5.017-.496.013-.5.013-.492.013-.496.008-.492.008-.488.008-.483.004-.479.004h-.95l-.463-.004-.458-.004-.45-.008-.446-.013-.217-.004-.217-.008-.217-.008-.213-.008-.15-.004-.058-.004-.208-.008-.204-.013-.204-.013-.2-.013-.196-.013-.196-.017-.192-.013-.192-.017-.183-.017-.183-.017-.183-.021-.175-.021-.175-.021-.171-.021-.171-.021-.163-.025-.163-.025-.158-.025-.154-.029-.15-.029-.15-.029-.142-.029-.142-.033-.138-.033-.133-.033-.129-.038-.125-.038-.121-.038-.117-.042-.117-.042-.108-.046-.058-.025-.054-.025-.054-.025-.054-.025-.054-.029-.058-.029-.054-.029-.054-.029-.108-.063-.113-.071-.108-.071-.108-.071-.108-.079-.113-.079-.108-.088-.108-.088-.113-.092-.108-.092-.108-.1-.108-.1-.113-.1-.108-.108-.108-.108-.113-.113-.108-.117-.108-.117-.113-.121-.108-.125-.108-.125-.108-.129-.113-.129-.108-.138-.108-.133-.108-.142-.108-.142-.108-.142-.108-.146-.108-.15-.108-.15-.108-.154-.108-.154-.104-.158-.108-.158-.104-.163-.108-.163-.104-.167-.104-.167-.104-.167-.104-.175-.104-.171-.104-.175-.104-.175-.1-.179-.1-.179-.104-.179-.1-.183-.096-.183-.1-.188-.1-.183-.096-.192-.096-.188-.096-.192-.096-.192-.096-.192-.092-.192-.092-.196-.092-.196-.092-.196-.092-.2-.088-.2-.088-.196-.088-.204-.083-.2-.088-.2-.083-.204-.079-.2-.083-.204-.079-.204-.079-.204-.075-.204-.079-.208-.075-.204-.071-.204-.075-.208-.071-.204-.067-.208-.071-.204-.067-.208-.063-.204-.067-.208-.063-.204-.058-.208-.058-.204-.058-.204-.058-.208-.054-.204-.05-.204-.05-.204-.05-.204-.046-.204-.046-.2-.046-.204-.042-.2-.042-.2-.038-.2-.033-.2-.038-.2-.029-.196-.033-.196-.029-.196-.025-.196-.025-.196-.021-.192-.021-.192-.017-.188-.017-.192-.013-.188-.013-.188-.008-.183-.004-.183-.004-.183-.004-.179v-.179l.004-.179.004-.175.008-.175.008-.175.017-.171.013-.167.021-.167.021-.167.021-.163.013-.083.017-.083.017-.083.017-.079.017-.079.021-.083.017-.079.025-.079.021-.075.025-.079.025-.075.025-.079.025-.075.029-.075.029-.075.029-.075.033-.071.033-.075.033-.071.033-.075.038-.071.033-.071.038-.067.042-.071.038-.071.042-.067.042-.067.042-.067.042-.067.046-.067.046-.067.046-.063.046-.067.05-.063.05-.063.05-.063.05-.063.05-.063.054-.058.05-.063.054-.058.058-.058.054-.058.054-.058.058-.058.058-.058.058-.054.058-.058.063-.054.063-.054.058-.054.063-.054.067-.054.063-.054.063-.05.067-.054.067-.05.067-.05.067-.05.067-.05.071-.05.071-.05.138-.092.142-.096.146-.092.15-.092.15-.088.15-.088.154-.083.158-.083.158-.079.163-.079.138-.067.021-.008.167-.079.167-.071.167-.071.171-.071.171-.071.171-.067.175-.063.175-.067.179-.063.175-.058.179-.058.183-.058.179-.054.183-.054.183-.054.188-.05.183-.05.188-.05.188-.046.188-.046.188-.042.188-.046.192-.038.192-.042.188-.038.192-.038.192-.038.192-.033.192-.033.188-.033.192-.029.192-.029.192-.029.192-.025.192-.029.188-.025.192-.021.192-.025.188-.021.188-.021.188-.017.188-.017.188-.017.188-.017.183-.017.183-.013.183-.013.183-.013.179-.008.179-.013.179-.008.179-.008.175-.004.175-.008.171-.004.175-.004h.167l.171-.004h.167l.163-.004.163.004h.321l.158.004.154.004.154.004.15.004.146.004.146.008.146.004.142.008.138.008.133.008.133.013.133.008.125.013.125.008.125.013.117.013.15.021.079.008.113.013.104.017.104.017.1.013.096.017.1.138-.138.1-.096-.013-.096-.017-.104-.013-.104-.013-.108-.013-.079-.008h-.033l-.113-.013-.117-.013-.121-.008-.125-.008-.125-.008-.129-.008-.133-.008-.133-.008-.138-.004-.138-.004-.142-.004-.146-.004-.146-.004-.15-.004h-.774l-.163.004-.163.004-.167.004-.167.004-.167.004-.171.008-.171.008-.175.008-.171.008-.175.013-.179.013-.179.008-.179.017-.179.013-.179.017-.183.017-.183.017-.183.021-.183.017-.188.021-.183.021-.188.025-.188.025-.188.025-.188.025-.188.029-.188.029-.188.029-.188.029-.192.033-.188.033-.188.033-.188.038-.188.038-.188.038-.188.042-.188.038-.188.046-.183.042-.188.046-.183.046-.183.046-.183.05-.183.05-.179.054-.183.05-.179.058-.175.054-.179.058-.175.058-.175.058-.171.063-.171.063-.171.067-.167.067-.167.067-.167.071-.163.071-.163.071-.158.075-.158.075-.021.008-.133.067-.154.079-.15.079-.15.083-.146.083-.146.083-.142.088-.138.088-.138.088-.133.092-.133.092-.067.05-.063.046-.063.046-.063.05-.063.05-.063.046-.058.05-.063.05-.058.05-.058.05-.058.054-.054.05-.058.05-.054.054-.054.054-.054.05-.054.054-.05.054-.05.054-.054.054-.046.058-.05.054-.05.054-.046.058-.046.058-.046.054-.046.058-.042.058-.042.058-.042.058-.042.063-.042.058-.038.063-.042.058-.038.063-.033.063-.038.058-.033.063-.033.067-.033.063-.033.063-.029.067-.029.063-.029.067-.029.067-.029.063-.025.067-.025.071-.025.067-.021.067-.025.071-.021.067-.021.071-.017.071-.017.071-.021.071-.013.071-.017.071-.013.075-.013.071-.013.075-.013.075-.017.15-.021.158-.013.158-.013.158-.008.163-.008.163-.004.167-.004.167v.171l.004.171.004.175.004.171.008.179.013.175.013.179.017.183.017.179.021.183.021.188.025.183.025.188.029.188.033.192.029.188.038.192.033.192.038.196.042.192.042.196.046.196.046.196.046.196.05.2.05.196.05.2.058.2.054.2.058.2.058.2.063.2.063.2.063.2.067.2.067.204.067.2.071.2.071.2.071.2.075.204.075.2.075.2.079.2.079.2.079.196.083.2.079.2.083.196.088.196.083.196.088.196.088.196.092.196.088.192.092.192.092.192.092.192.092.188.096.192.096.188.096.183.096.188.096.183.1.179.1.183.096.179.1.179.1.175.104.175.1.175.104.171.1.171.104.167.104.167.104.167.1.163.108.158.104.158.104.158.104.154.104.154.108.15.104.146.104.146.108.146.104.142.108.138.104.138.108.133.104.129.104.129.108.125.104.125.104.117.104.121.104.113.104.113.104.108.104.104.104.104.104.1.1.096.1.092.104.092.1.083.1.083.096.079.1.075.096.075.096.067.096.067.092.063.092.058.092.054.092.05.088.046.088.042.088.042.083.033.088.033.096.033.096.033.104.033.108.029.113.029.121.029.121.029.129.025.129.029.138.025.142.025.142.021.15.021.15.025.158.017.158.021.167.017.167.021.171.017.171.013.179.017.179.013.183.013.188.013.192.013.192.008.196.008.196.008.204.008.2.008.208.004.208.008.213.004.213.004.213.004.438.004h.9l.458-.004.467-.004.471-.008.475-.008.479-.013.488-.013.488-.013.488-.017.492-.017.496-.021.496-.021.496-.021.496-.021.988-.046.979-.046.971-.046.95-.05.929-.046.904-.042.875-.038.425-.017.417-.017.404-.017.396-.013.383-.013.375-.013.363-.008.346-.004.338-.004h.629l.296.004.142.004.138.004.138.004.129.004.125.008.125.008.121.008.113.008.067.004.063.008.067.008.071.008.133.021.142.025.15.029.154.033.154.033.167.042.167.042.175.046.179.05.188.054.192.058.196.058.204.063.208.067.217.067.217.071.229.075.229.079.479.163.504.171.521.183.546.192.567.204.588.208 1.238.446 1.321.471.688.242.708.25.725.258.746.258.763.263.783.267.396.133.4.138.408.133.408.138.413.138.421.138.421.138.425.138.433.138.433.138.438.138.442.138.446.138.45.138.454.138.454.138.463.138.463.138.467.138.108.029.363.108.475.133.479.138.479.133.488.133.488.133.488.133.496.129.496.133.5.129.504.125.508.129.508.125.513.125.517.121.517.121.521.121.525.121.525.117.529.113.529.113.533.113.538.108.538.108.542.104.546.104.546.1.546.1.554.096.55.096.554.092.558.088.558.088.563.083.563.083.283.038.283.042.279.038.288.038.283.038.283.038.283.033.288.033.283.038.288.033.288.033.288.029.288.033.288.029.288.029.288.029.292.029.288.025.292.029.288.025.292.025.292.025.292.021.292.025.292.021.292.021.292.017.292.021.296.017.292.017.296.017.292.017.296.013.296.013.296.013.292.013.296.008.296.008.3.008.296.008.296.008.296.004.296.004.3.004h.752l.188-.004.192-.004.188-.004.188-.004.192-.008.188-.008.192-.008.192-.008.188-.013.192-.008.192-.013.192-.017.188-.013.192-.017.192-.017.192-.017.192-.017.196-.021.192-.021.192-.021.192-.021.192-.021.196-.025.192-.025.192-.025.196-.025.192-.025.196-.029.192-.029.196-.029.192-.029.196-.033.196-.029.192-.033.196-.033.192-.033.196-.038.196-.033.388-.071.392-.079.392-.079.388-.079.392-.083.392-.088.388-.092.392-.092.392-.096.392-.096.388-.1.392-.104.392-.104.388-.108.392-.108.388-.108.392-.117.388-.113.388-.117.317-.1.071-.021.388-.121.388-.121.388-.125.388-.125.383-.129.383-.129.388-.129.383-.129.379-.133.383-.138.379-.133.379-.138.379-.138.379-.138.379-.142.375-.142.375-.142.371-.142.375-.142.371-.146.371-.142.138-.058.229-.088.371-.146.363-.146.367-.146.363-.146.363-.146.721-.296.713-.292.708-.296.7-.292.692-.292.683-.292.679-.288.671-.288 1.313-.563 1.275-.546.625-.267.617-.263.604-.254.596-.246.583-.242.575-.238.283-.113.279-.113.275-.108.275-.108.271-.108.267-.104.267-.1.263-.1.258-.096.258-.092.254-.092.25-.088.246-.088.246-.083.242-.079.238-.079.233-.075.233-.071.225-.067.225-.067.225-.063.217-.058.217-.054.213-.054.375-.088.396-.092.417-.096.438-.096.463-.1.479-.1.25-.054.25-.05.258-.05.263-.05.267-.054.271-.05.275-.05.283-.05.283-.054.288-.05.296-.05.296-.05.3-.046.308-.05.308-.05.313-.046.317-.046.321-.046.325-.046.329-.046.329-.046.338-.042.338-.042.342-.042.346-.038.346-.038.354-.038.354-.038.354-.033.363-.033.363-.029.363-.029.371-.029.371-.029.371-.025.375-.021.379-.021.379-.021.383-.017.167-.008.221-.008.383-.013.392-.008.388-.008.396-.008.392-.004h.796l.4.004.4.004.404.008.4.013.408.013.504.021.504.021.508.025.508.029.508.029.508.029.508.033.508.033.504.038.508.033.504.038.504.038 1.004.079.996.079.988.079.975.079.963.075.475.038.475.033.467.033.467.033.458.029.454.029.45.029.446.025.438.021.438.021.425.021.425.013.413.013.208.008.2.004h.204l.2.004h.2l.196.004h.196l.192-.004h.192l.188-.004.188-.004.188-.004.183-.004.179-.008.183-.008.175-.008.175-.008.175-.013.171-.013.167-.013.167-.013.163-.017.163-.017.158-.017.158-.021.154-.021.154-.021.15-.021.146-.025.146-.025.142-.029.138-.025.138-.029.133-.033.129-.029.129-.033.125-.033.125-.038.121-.038.117-.038.113-.038.113-.042.108-.042.104-.046.1-.042.1-.046.096-.05.092-.046.092-.054.042-.021.042-.029.046-.025.038-.025.042-.025.042-.029.038-.025.038-.029.038-.029.038-.025.033-.029.038-.029.033-.029.033-.029.033-.029.033-.029.029-.029.029-.033.033-.033.033-.033.033-.038.029-.038.029-.038.029-.038.029-.038.029-.038.025-.038.029-.042.025-.042.025-.042.025-.042.021-.042.025-.042.021-.046.021-.042.021-.046.021-.046.017-.046.021-.05.017-.046.017-.05.017-.05.017-.05.017-.05.013-.05.013-.05.013-.054.013-.054.013-.054.013-.054.008-.054.008-.054.008-.058.008-.054.008-.058.008-.058.004-.058.004-.063.004-.058.004-.063.004-.058.004-.063v-.252l-.004-.133-.004-.129-.008-.138-.013-.133-.013-.138-.017-.142-.021-.138-.021-.146-.025-.142-.025-.146-.029-.15-.033-.15-.033-.15-.038-.15-.042-.154-.042-.154-.042-.154-.046-.158-.05-.154-.05-.158-.054-.163-.054-.158-.058-.163-.058-.158-.063-.163-.063-.167-.063-.163-.067-.163-.071-.167-.071-.163-.071-.167-.075-.167-.075-.163-.079-.167-.079-.167-.079-.167-.083-.167-.083-.167-.083-.167-.088-.167-.088-.163-.088-.167-.092-.167-.088-.163-.096-.167-.092-.163-.096-.167-.096-.163-.096-.163-.096-.163-.1-.158-.1-.163-.1-.158-.1-.158-.104-.158-.1-.158-.104-.154-.104-.154-.104-.154-.104-.154-.104-.15-.108-.15-.104-.15-.108-.15-.108-.146-.104-.142-.108-.146-.108-.142-.108-.138-.108-.142-.104-.133-.108-.138-.108-.133-.108-.129-.108-.129-.108-.129-.104-.125-.108-.125-.108-.121-.104-.117-.108-.117-.104-.117-.104-.113-.104-.108-.104-.108-.104-.104-.104-.104-.1-.1-.1-.096-.1-.096-.1-.092-.1-.088-.096-.088-.096-.083-.096-.079-.096-.075-.092-.075-.092-.071-.092-.071-.088-.063-.088-.063-.083-.058-.088-.054-.083-.05-.3-.183-.313-.183-.317-.188-.063-.033-.263-.154-.333-.188-.338-.192-.346-.192-.354-.192-.358-.192-.363-.196-.371-.192-.375-.196-.379-.196-.383-.192-.392-.196-.396-.196-.396-.196-.404-.196-.408-.192-.413-.196-.413-.196-.417-.192-.425-.192-.421-.192-.429-.192-.429-.192-.429-.188-.438-.188-.433-.183-.438-.188-.442-.183-.438-.179-.442-.179-.442-.179-.446-.175-.442-.175-.446-.171-.442-.167-.446-.167-.442-.167-.442-.158-.442-.158-.442-.158-.442-.15-.438-.15-.438-.15-.433-.142-.433-.142-.433-.133-.425-.133-.429-.129-.421-.125-.421-.125-.208-.058-.208-.058-.204-.058-.208-.054-.204-.054-.204-.054-.204-.054-.2-.05-.204-.054-.2-.046-.2-.05-.196-.046-.196-.05-.196-.042-.196-.046-.192-.042-.192-.042-.192-.042-.167-.033-.025-.004-.188-.038-.188-.038-.183-.033-.1-.142.142-.096.188.033z" fill="#262626"/><path d="M178.334 90.707c3.458-1.171 11.513 3.192 11.458 7.871-.05 4.679-4.717 10.483-7.933 10.692-3.213.208-5.963-4.513-6.583-8.088-.621-3.579 0-9.438 3.058-10.475z" fill="#737373"/><path d="M178.305 90.849l-.038.017-.029.013-.063.029-.067.033-.063.033-.063.033-.063.038-.058.038-.058.038-.058.042-.058.042-.058.046-.054.046-.058.046-.054.046-.054.05-.05.05-.054.054-.05.054-.05.054-.05.054-.046.058-.05.058-.046.058-.046.063-.046.063-.042.063-.046.063-.042.067-.042.067-.042.067-.042.071-.038.071-.042.071-.038.071-.038.075-.021.038-.017.033-.033.075-.038.079-.033.075-.033.079-.033.079-.033.079-.033.079-.029.079-.033.083-.029.083-.029.083-.025.088-.029.083-.025.088-.029.083-.025.088-.025.092-.021.088-.025.088-.021.092-.021.092-.021.092-.021.092-.021.092-.021.092-.017.092-.017.096-.017.096-.017.092-.033.192-.025.192-.029.192-.021.196-.021.196-.017.196-.017.196-.013.2-.013.196-.008.196-.004.2-.004.196v.396l.004.196.004.192.008.196.008.192.013.192.013.192.017.2.017.171.017.183.021.183.025.179.021.175.029.175.025.171.029.167.033.167.033.158.033.163.038.158.042.163.042.163.046.163.05.167.054.167.054.167.058.167.058.167.067.167.063.167.071.171.025.063.042.104.075.167.075.167.075.167.079.167.083.163.083.163.083.163.088.163.092.158.092.158.096.154.096.154.096.15.1.15.1.146.05.071.054.071.05.071.054.071.05.071.054.067.054.071.05.067.054.067.054.063.058.067.054.063.054.063.054.063.113.125.054.058.058.058.054.058.058.058.054.054.058.054.054.054.058.054.058.05.058.05.054.05.058.05.058.046.058.046.058.046.058.042.058.046.058.038.058.042.058.038.054.038.058.038.058.038.058.033.058.033.058.029.058.029.058.029.058.029.054.025.058.025.058.025.054.021.058.021.058.021.054.021.058.017.054.017.058.013.054.013.058.013.054.013.054.008.054.008.058.008.054.004.054.004.054.004.054.004h.113l.054-.004h.054l.054-.004.054-.004.054-.008.054-.008.058-.008.054-.013.058-.013.063-.017.058-.013.063-.021.063-.017.063-.025.063-.021.067-.025.067-.025.067-.029.067-.029.067-.029.071-.033.067-.038.025-.008.046-.025.071-.038.071-.038.071-.042.075-.042.071-.046.075-.046.071-.046.075-.046.075-.05.071-.054.075-.05.075-.054.075-.058.075-.058.079-.058.075-.058.05-.042.025-.021.075-.063.075-.063.079-.067.075-.063.075-.071.079-.067.075-.071.075-.071.079-.071.075-.075.075-.075.075-.075.075-.079.075-.075.046-.046.029-.033.075-.079.075-.083.075-.079.075-.083.075-.083.071-.088.075-.083.071-.088.075-.088.071-.088.071-.092.071-.088.071-.092.067-.092h.004l.067-.092.071-.096.071-.092.067-.096.067-.092.067-.096.067-.096.067-.1.067-.096.063-.1.063-.096.063-.1.063-.1.063-.1.063-.1.058-.1.058-.104.058-.1.054-.104.058-.1.054-.104.054-.104.054-.104.054-.104.05-.104.05-.104.05-.104.046-.104.038-.083.013-.025.046-.104.046-.104.046-.104.042-.104.042-.108.042-.104.042-.104.038-.108.038-.104.038-.104.038-.108.033-.104.033-.104.029-.104.033-.108.029-.104.025-.104.029-.104.025-.104.021-.104.025-.104.021-.104.017-.1.017-.104.017-.104.017-.1.013-.104.013-.1.013-.1.008-.1.004-.075.004-.025.008-.1.004-.096.004-.096v-.088l-.004-.092-.004-.092-.004-.092-.008-.092-.013-.096-.013-.092-.017-.092-.017-.092-.021-.096-.025-.092-.025-.096-.029-.096-.029-.092-.033-.096-.033-.096-.038-.092-.038-.096-.042-.096-.042-.096-.046-.096-.05-.096-.05-.092-.05-.096-.054-.096-.058-.096-.058-.096-.058-.092-.021-.033-.042-.063-.063-.096-.067-.092-.067-.096-.067-.096-.071-.092-.075-.096-.075-.092-.075-.092-.079-.092-.079-.092-.079-.092-.083-.092-.083-.092-.088-.088-.088-.088-.088-.092-.088-.088-.092-.088-.096-.088-.092-.083-.096-.088-.096-.083-.096-.083-.1-.083-.1-.083-.1-.079-.104-.083-.1-.079-.104-.079-.104-.079-.108-.075-.104-.079-.108-.075-.108-.075-.108-.071-.108-.075-.113-.071-.108-.071-.113-.067-.108-.071-.113-.067-.113-.067-.117-.063-.113-.063-.113-.063-.113-.063-.117-.063-.113-.058-.117-.058-.117-.054-.008-.004-.104-.054-.117-.054-.113-.05-.117-.054-.113-.05-.117-.05-.117-.046-.113-.05-.117-.042-.113-.046-.113-.042-.117-.042-.113-.038-.113-.038-.113-.038-.113-.033-.113-.033-.113-.033-.108-.029-.113-.029-.108-.029-.108-.025-.108-.021-.108-.025-.108-.021-.104-.017-.104-.017-.104-.017-.104-.013-.104-.013-.1-.008-.1-.008-.1-.008-.1-.004-.096-.004h-.192l-.096.004-.092.004-.092.004-.088.008-.088.013-.088.013-.088.013-.083.017-.083.017-.05.013-.029.008-.083.021-.067.029zm.104-.296l.058-.021.088-.025.088-.025.092-.025.092-.021.092-.017.096-.021.1-.013.096-.013.1-.013.1-.008.104-.008.104-.008.104-.004h.32l.108.004.113.004.113.008.108.008.117.008.113.013.117.013.117.017.117.017.117.017.117.021.121.021.117.025.121.025.121.025.121.029.125.029.121.029.121.033.125.033.125.033.121.038.125.038.125.042.125.042.125.042.125.046.125.042.125.05.125.046.125.05.125.054.125.05.125.054.125.058.121.054.125.058.125.058.125.063.121.063.125.063.121.063.125.067.121.067.121.067.121.071.121.067.117.071.121.075.117.071.121.075.117.075.113.079.117.079.117.079.113.079.113.079.113.083.108.083.108.083.108.088.108.083.108.088.104.088.104.092.104.092.1.092.1.092.1.092.096.096.096.092.096.1.092.096.092.096.092.1.088.1.088.1.083.104.083.1.079.104.083.104.075.108.075.104.075.108.071.108.067.113.071.108.063.113.063.113.063.113.058.113.054.117.054.117.05.117.05.117.046.117.042.121.042.121.038.121.038.121.033.121.029.125.025.125.025.125.017.125.021.125.013.129.008.125.008.129.004.125v.275l-.004.092-.004.121-.004.121-.008.125-.013.121-.008.121-.017.125-.013.121-.017.121-.021.125-.017.121-.025.125-.021.121-.025.125-.025.121-.029.125-.029.121-.029.125-.029.121-.033.125-.033.121-.038.125-.038.121-.038.121-.042.125-.038.121-.046.121-.042.121-.046.125-.046.121-.046.121-.008.025-.042.096-.05.117-.05.121-.054.121-.05.117-.054.121-.058.117-.054.117-.058.117-.058.121-.063.113-.058.117-.063.117-.063.117-.063.113-.067.113-.063.117-.067.113-.067.113-.067.108-.071.113-.071.113-.067.108-.071.108-.075.108-.071.108-.075.108-.071.104-.075.104-.004.004-.071.1-.079.104-.075.104-.079.1-.079.1-.079.1-.079.1-.079.1-.083.096-.079.096-.083.096-.083.092-.083.096-.083.092-.038.038-.046.054-.088.088-.083.088-.088.088-.083.088-.088.088-.088.083-.088.083-.088.079-.088.083-.092.079-.088.079-.088.075-.092.075-.092.075-.025.021-.063.05-.092.071-.092.071-.092.067-.092.071-.092.063-.092.067-.096.063-.092.058-.092.063-.096.058-.092.054-.092.054-.096.054-.096.054-.092.05-.096.046-.063.033-.033.013-.092.046-.096.042-.096.042-.096.042-.096.033-.096.038-.1.033-.096.033-.096.029-.096.025-.096.025-.1.025-.096.021-.1.017-.096.017-.1.017-.096.013-.1.008-.096.004-.096.004-.096.004h-.096l-.079-.004h-.017l-.092-.004-.096-.008-.092-.008-.096-.013-.092-.017-.092-.013-.092-.021-.092-.021-.088-.021-.092-.021-.088-.029-.088-.025-.088-.029-.088-.033-.088-.029-.083-.038-.088-.033-.083-.038-.083-.038-.083-.042-.079-.042-.083-.046-.079-.042-.079-.05-.079-.046-.079-.05-.079-.05-.079-.05-.075-.054-.075-.054-.075-.054-.075-.058-.075-.054-.071-.058-.075-.063-.071-.058-.071-.063-.071-.063-.071-.067-.067-.063-.071-.067-.067-.067-.067-.067-.071-.071-.063-.071-.067-.067-.067-.075-.063-.071-.067-.075-.063-.071-.063-.075-.017-.025-.042-.05-.063-.079-.063-.075-.058-.079-.058-.079-.058-.079-.058-.079-.058-.083-.054-.079-.058-.083-.054-.083-.054-.083-.054-.083-.054-.083-.054-.088-.104-.171-.1-.171-.1-.175-.096-.179-.096-.179-.092-.179-.088-.179-.088-.183-.083-.183-.083-.183-.079-.188-.075-.183-.075-.188-.071-.188-.067-.188-.042-.117-.025-.071-.063-.188-.058-.188-.058-.188-.054-.188-.05-.188-.046-.188-.046-.183-.042-.188-.042-.183-.033-.179-.033-.183-.029-.179-.029-.179-.025-.179-.021-.179-.021-.183-.017-.188-.013-.188-.017-.192-.008-.192-.008-.196-.008-.196-.004-.179v-.621l.008-.204.008-.204.008-.204.013-.208.017-.204.017-.208.017-.204.025-.208.021-.204.029-.208.029-.204.033-.204.033-.204.038-.204.038-.2.042-.2.046-.2.05-.2.025-.096.025-.1.025-.096.025-.096.029-.096.029-.096.029-.096.029-.096.029-.092.029-.096.033-.092.033-.092.033-.092.033-.092.033-.088.038-.092.033-.088.038-.088.038-.088.038-.083.042-.088.038-.083.042-.083.042-.083.042-.079.042-.079.046-.083.042-.075.046-.079.021-.033.025-.042.046-.075.05-.075.046-.075.05-.071.05-.071.05-.071.054-.067.05-.067.054-.067.054-.067.054-.063.058-.063.054-.058.058-.063.058-.058.058-.054.063-.054.058-.054.063-.054.063-.05.063-.05.063-.046.067-.046.067-.046.067-.042.067-.042.067-.038.071-.038.067-.038.071-.033.071-.033.075-.029.071-.029.075-.029.033-.013.042-.013.075-.021.083-.033.029-.008z" fill="#262626"/><path d="M63.723 95.696c-2.95-1.051-9.208 3.771-9.166 7.968.046 4.201 3.415 8.511 6.159 8.698 2.74.187 4.634-3.573 5.164-6.786.53-3.21.451-8.948-2.157-9.88z" fill="#737373"/><path d="M62.728 95.378l.085.004.085.007.085.007.082.007.082.011.082.015.082.015.078.015.078.022.075.022.075.022.046.015.028.011.071.03.068.019.036.015.028.007.064.026.06.026.064.03.06.03.06.03.06.037.057.034.06.037.057.041.053.037.057.045.053.045.053.045.053.045.053.049.05.052.05.052.05.052.05.052.046.056.046.06.046.056.046.06.043.06.046.064.043.064.039.067.043.064.039.067.039.067.039.071.039.071.039.071.021.045.014.026.036.075.036.075.032.075.036.079.032.075.032.079.028.082.032.079.028.082.032.082.028.082.025.082.028.086.028.082.025.086.025.086.025.09.025.086.043.176.046.18.039.183.039.183.036.187.036.187.032.187.028.191.025.191.028.195.021.195.021.195.018.195.018.195.014.195.014.195.011.195.011.195.007.195.007.195.004.195v.191l.004.191v.101l-.004.09-.004.187-.004.187-.007.187-.007.183-.011.18-.011.18-.011.176-.014.176-.014.168-.014.168-.018.168-.018.161-.021.161-.021.157-.021.161-.025.161-.028.161-.028.161-.032.161-.032.161-.036.165-.018.071-.021.09-.039.165-.043.161-.046.161-.046.165-.046.161-.05.161-.053.161-.053.157-.057.161-.06.157-.06.157-.06.157-.064.153-.068.153-.068.153-.071.153-.071.15-.075.146-.078.15-.078.142-.082.146-.082.138-.085.138-.089.138-.092.135-.092.131-.046.064-.05.064-.046.064-.05.064-.05.064-.053.06-.05.064-.05.06-.053.06-.053.06-.053.056-.053.056-.057.056-.053.056-.057.056-.057.052-.057.056-.057.052-.06.049-.06.052-.06.049-.06.049-.06.049-.06.045-.064.049-.064.045-.064.041-.068.045-.064.041-.068.037-.068.041-.068.037-.068.037-.071.034-.071.034-.071.034-.071.03-.071.03-.075.03-.075.026-.075.026-.075.026-.075.022-.078.022-.078.019-.078.019-.078.015-.078.015-.082.011-.078.011-.082.007-.082.007-.082.007-.082.004h-.246l-.085-.004-.085-.007-.082-.007-.085-.011-.085-.011-.082-.011-.085-.015-.082-.019-.082-.015-.085-.022-.082-.022-.082-.022-.082-.022-.082-.03-.082-.026-.028-.011-.053-.019-.078-.03-.082-.034-.078-.034-.082-.037-.078-.037-.078-.037-.078-.041-.078-.041-.078-.041-.078-.041-.078-.045-.075-.049-.078-.045-.075-.049-.078-.052-.075-.049-.075-.052-.075-.052-.06-.045-.014-.011-.075-.056-.075-.056-.071-.056-.075-.06-.071-.06-.071-.064-.071-.06-.071-.064-.071-.064-.071-.067-.068-.064-.071-.067-.068-.067-.068-.071-.071-.067-.068-.071-.025-.03-.039-.045-.068-.071-.064-.075-.068-.075-.064-.075-.064-.075-.064-.079-.064-.079-.06-.079-.064-.079-.06-.082-.06-.079-.06-.082-.06-.082-.057-.086-.06-.082-.018-.03-.039-.056-.057-.086-.057-.086-.053-.09-.057-.086-.053-.09-.053-.09-.053-.09-.053-.09-.05-.09-.05-.094-.05-.094-.05-.09-.05-.094-.046-.097-.05-.094-.046-.094-.046-.097-.043-.097-.043-.094-.046-.097-.039-.101-.043-.097-.043-.097-.039-.101-.039-.097-.036-.101-.039-.101-.036-.101-.036-.101-.036-.101-.011-.037-.021-.064-.032-.101-.032-.105-.028-.101-.028-.105-.028-.105-.025-.105-.028-.101-.025-.105-.021-.105-.025-.108-.021-.105-.018-.105-.021-.105-.018-.105-.018-.108-.014-.105-.018-.108-.011-.105-.014-.108-.011-.105-.011-.108-.011-.105-.007-.108-.007-.108-.004-.105-.004-.108-.004-.108v-.105l-.004-.108.004-.108v-.071l.004-.045.007-.112.007-.116.011-.112.014-.116.018-.112.018-.116.021-.112.025-.112.025-.112.028-.112.032-.112.032-.108.036-.112.036-.108.039-.108.039-.112.043-.108.043-.105.046-.108.05-.108.05-.105.05-.105.053-.108.057-.105.057-.105.057-.101.06-.105.06-.101.06-.101.068-.101.064-.101.068-.101.071-.097.068-.101.075-.097.071-.097.075-.094.075-.097.078-.094.075-.094.082-.094.078-.094.082-.094.082-.09.082-.09.085-.09.085-.09.085-.086.085-.09.089-.086.089-.082.089-.086.089-.082.092-.082.092-.082.092-.082.092-.079.092-.079.096-.079.092-.079.096-.075.096-.075.096-.075.1-.075.096-.071.1-.071.096-.067.1-.071.1-.067.1-.064.1-.067.1-.064.1-.064.1-.06.103-.06.1-.06.103-.06.1-.056.014-.007.089-.049.1-.052.103-.052.1-.049.103-.052.1-.045.103-.049.1-.045.103-.045.1-.041.103-.041.1-.041.1-.037.1-.037.1-.034.1-.034.1-.034.1-.03.096-.026.1-.03.096-.022.1-.026.096-.022.096-.019.092-.019.096-.019.092-.015.096-.011.092-.015.092-.007.089-.007.092-.007.089-.004.089-.004h.174zm.864.408l-.046-.011-.068-.015-.071-.015-.071-.007-.071-.011-.075-.004-.071-.007h-.075l-.078-.004-.075.004h-.078l-.078.007-.078.007-.082.007-.078.011-.082.011-.082.015-.082.015-.085.019-.082.019-.085.019-.085.022-.085.026-.085.026-.085.026-.089.03-.085.034-.089.03-.089.034-.089.037-.089.037-.089.037-.089.041-.089.045-.089.041-.089.045-.092.049-.089.045-.089.049-.092.052-.089.052-.089.052-.092.056-.089.056-.092.056-.089.056-.089.06-.089.064-.092.06-.089.064-.089.064-.089.064-.089.067-.089.067-.089.067-.085.067-.089.071-.085.071-.089.075-.085.071-.085.075-.085.075-.085.075-.082.079-.085.079-.082.079-.082.079-.078.079-.082.082-.078.082-.082.082-.075.082-.078.082-.078.086-.075.086-.075.086-.071.086-.075.086-.071.086-.068.09-.071.086-.068.09-.068.09-.064.09-.068.09-.06.09-.064.09-.06.094-.06.09-.057.094-.057.09-.057.094-.053.09-.053.094-.053.094-.05.09-.05.097-.046.09-.046.09-.043.094-.043.094-.043.09-.039.094-.039.094-.036.09-.036.094-.032.09-.032.09-.028.094-.028.09-.025.09-.025.09-.025.09-.018.09-.021.09-.018.086-.014.09-.014.086-.011.086-.011.086-.007.086-.007.086-.004.086v.246l.004.034v.052l.004.086.007.09.007.09.007.09.007.09.011.09.011.09.011.09.014.09.014.09.014.09.018.09.018.09.018.09.018.086.021.09.018.09.025.09.021.09.025.086.025.09.025.086.025.09.028.086.028.09.028.086.028.086.032.09.032.086.032.086.021.052.011.034.036.086.032.086.036.082.036.086.036.086.039.082.036.086.039.082.039.082.039.082.043.082.039.082.043.082.043.082.043.079.046.079.043.082.046.079.046.079.046.075.046.079.046.075.05.079.046.075.05.075.05.075.05.071.05.075.05.071.053.071.036.049.014.022.053.071.053.067.05.071.053.067.053.067.053.067.053.067.053.064.057.064.053.064.057.064.053.064.057.06.057.06.053.06.036.034.021.022.057.06.057.056.057.056.057.056.057.052.057.052.057.052.057.052.057.049.057.049.057.049.057.049.057.045.06.045.057.045.057.041.011.011.046.03.057.041.057.041.053.037.057.041.057.034.057.037.057.034.053.034.057.03.053.034.057.03.053.026.053.026.057.026.053.026.053.022.053.022.05.022.036.011.018.007.05.022.053.015.05.019.05.015.05.015.05.015.046.011.05.011.046.011.046.007.046.007.046.007.046.007.043.004.046.004h.043l.046.004h.089l.043-.004h.043l.043-.004.043-.004.043-.007h.018l.025-.004.043-.007.043-.007.043-.007.043-.011.043-.007.043-.011.043-.015.043-.011.043-.015.043-.015.043-.015.043-.019.043-.019.043-.019.043-.019.043-.022.043-.019.043-.026.043-.022.043-.026.046-.026.043-.026.043-.026.043-.03.043-.03.043-.03.043-.034.043-.034.043-.034.046-.034.043-.037.043-.034.043-.041.043-.037.043-.037.039-.041.043-.041.043-.045.043-.041.043-.045.039-.045.043-.045.043-.049.039-.049.043-.049.039-.049.039-.049.082-.101.082-.108.068-.094.011-.015.078-.108.078-.112.075-.116.075-.12.075-.12.071-.123.071-.127.071-.127.068-.127.068-.131.068-.135.064-.135.064-.135.06-.138.06-.138.057-.138.057-.142.053-.142.053-.142.053-.142.05-.146.046-.142.046-.146.025-.079.021-.067.043-.146.043-.142.039-.146.039-.146.036-.142.036-.146.032-.142.032-.146.028-.142.028-.15.028-.153.028-.157.025-.161.025-.165.025-.165.025-.168.021-.172.021-.172.018-.176.018-.176.018-.18.007-.086.011-.094.014-.183.014-.183.014-.183.011-.187.007-.187.011-.183.004-.187.004-.191.004-.187v-.374l-.004-.187-.007-.183-.007-.187-.011-.183-.011-.183-.014-.183-.014-.18-.021-.176-.021-.18-.021-.176-.025-.172-.028-.168-.018-.086-.014-.082-.018-.082-.014-.082-.018-.082-.018-.082-.021-.079-.018-.079-.021-.079-.021-.079-.021-.079-.021-.075-.025-.075-.021-.075-.025-.075-.025-.071-.025-.071-.028-.071-.011-.026-.018-.041-.025-.071-.028-.067-.028-.067-.032-.064-.028-.064-.032-.064-.032-.064-.032-.06-.036-.06-.036-.06-.032-.056-.036-.056-.039-.056-.036-.052-.039-.052-.039-.052-.039-.049-.043-.049-.039-.049-.043-.045-.043-.045-.046-.045-.043-.041-.046-.041-.046-.037-.05-.041-.046-.034-.05-.037-.05-.034-.05-.03-.053-.03-.053-.03-.053-.026-.025-.011-.032-.015-.053-.026-.068-.019-.025-.004z" fill="#262626"/><circle cx="90.159" cy="78.153" r=".793" fill="#fff" transform="matrix(4.167 0 0 4.167 -196.541 -231.818)"/><circle cx="90.159" cy="78.153" r=".793" fill="#fff" transform="matrix(2.942 0 0 2.942 -202.671 -132.185)"/></svg>