<?xml version="1.0" encoding="UTF-8" standalone="no"?>
<!DOCTYPE svg PUBLIC "-//W3C//DTD SVG 1.1//EN" "http://www.w3.org/Graphics/SVG/1.1/DTD/svg11.dtd">
<svg width="100%" height="100%" viewBox="0 0 576 512" version="1.1" xmlns="http://www.w3.org/2000/svg" xmlns:xlink="http://www.w3.org/1999/xlink" xml:space="preserve" xmlns:serif="http://www.serif.com/" style="fill-rule:evenodd;clip-rule:evenodd;stroke-linejoin:round;stroke-miterlimit:1.41421;">
    <path d="M528,32L48,32C21.5,32 0,53.5 0,80L0,432C0,458.5 21.5,480 48,480L528,480C554.5,480 576,458.5 576,432L576,80C576,53.5 554.5,32 528,32ZM528,432L303.2,432C304.1,427.5 304,435.6 304,409.6C304,377.8 273.9,352 236.8,352C226,352 218.1,360 192,360C165.1,360 158.6,352 147.2,352C110.1,352 80,377.8 80,409.6C80,435.6 79.8,427.5 80.8,432L48,432L48,144L528,144L528,432ZM360,352L472,352C476.4,352 480,348.4 480,344L480,328C480,323.6 476.4,320 472,320L360,320C355.6,320 352,323.6 352,328L352,344C352,348.4 355.6,352 360,352ZM360,288L472,288C476.4,288 480,284.4 480,280L480,264C480,259.6 476.4,256 472,256L360,256C355.6,256 352,259.6 352,264L352,280C352,284.4 355.6,288 360,288ZM360,224L472,224C476.4,224 480,220.4 480,216L480,200C480,195.6 476.4,192 472,192L360,192C355.6,192 352,195.6 352,200L352,216C352,220.4 355.6,224 360,224ZM192,320C227.3,320 256,291.3 256,256C256,220.7 227.3,192 192,192C156.7,192 128,220.7 128,256C128,291.3 156.7,320 192,320Z" style="fill:white;fill-rule:nonzero;"/>
</svg>
